
<svg viewBox="0 0 81 94" version="1.1" xmlns="http://www.w3.org/2000/svg" xmlns:xlink="http://www.w3.org/1999/xlink">
    <g id="Page-1" stroke="none" stroke-width="1" fill="none" fill-rule="evenodd">
        <g id="a" transform="translate(0.620000, 0.930000)">
            <path d="M0,32.45 L33.12,32.45 C36.0305406,32.45 38.39,30.0905406 38.39,27.18 L38.39,27.18 C38.3789839,24.2772729 36.022748,21.93 33.12,21.93 L0,21.93 L0,32.45 Z" id="Path" fill="#8CB4D3" fill-rule="nonzero"></path>
            <path d="M3.24,24.03 L6.29,24.03 C6.73127583,23.9912327 7.16750821,24.1468954 7.48455863,24.4562598 C7.80160905,24.7656241 7.96792845,25.1979058 7.94,25.64 C7.94,26.64 7.41,26.97 6.77,26.99 L6.77,27.05 C7.15996985,27.0407554 7.53587809,27.1957982 7.80594131,27.4772725 C8.07600453,27.7587469 8.2153665,28.1407462 8.19,28.53 C8.21723124,28.9833638 8.06083526,29.428607 7.75606997,29.7653538 C7.45130468,30.1021007 7.02382429,30.3020049 6.57,30.32 L3.24,30.32 L3.24,24.03 Z M4.6,26.61 L5.96,26.61 C6.11723689,26.6221507 6.27192807,26.5649576 6.38344281,26.4534428 C6.49495756,26.3419281 6.55215068,26.1872369 6.54,26.03 L6.54,25.76 C6.55259727,25.6035162 6.49517256,25.4494996 6.38320276,25.3394603 C6.27123296,25.2294211 6.1162411,25.1746834 5.96,25.19 L4.6,25.19 L4.6,26.61 Z M4.6,29.16 L6.18,29.16 C6.33521866,29.1785906 6.49056521,29.1263634 6.6030278,29.0177788 C6.71549039,28.9091942 6.77313457,28.7557752 6.76,28.6 L6.76,28.29 C6.77259727,28.1335162 6.71517256,27.9794996 6.60320276,27.8694603 C6.49123296,27.7594211 6.3362411,27.7046834 6.18,27.72 L4.6,27.72 L4.6,29.16 Z" id="Shape" fill="#FFFFFF" fill-rule="nonzero"></path>
            <path d="M0,44.49 L41.42,44.49 C44.3204304,44.4680264 46.66,42.1105137 46.66,39.21 L46.66,39.21 C46.66,36.3094863 44.3204304,33.9519736 41.42,33.93 L0,33.93 L0,44.49 Z" id="Path" fill="#7792B1" fill-rule="nonzero"></path>
            <path d="M3.31,39.26 C3.31,37.13 4.4,35.96 6.09,35.96 C7.11388216,35.8815856 8.06838526,36.4827195 8.44,37.44 L7.26,38.05 C7.14183439,37.5086098 6.64248823,37.1373011 6.09,37.18 C5.29,37.18 4.76,37.72 4.76,38.71 L4.76,39.71 C4.76,40.71 5.29,41.24 6.09,41.24 C6.67076049,41.243773 7.18243825,40.8589913 7.34,40.3 L8.46,40.95 C8.05803356,41.8935502 7.11480302,42.4905316 6.09,42.45 C4.4,42.46 3.31,41.38 3.31,39.26 Z" id="Path" fill="#FFFFFF" fill-rule="nonzero"></path>
            <path d="M0.5,19.930021 L0.5,0.5 L15.5,0.5 C20.8654463,0.511045808 25.2060455,4.86955373 25.1950208,10.235 C25.1839541,15.6004463 20.8254463,19.9410456 15.46,19.930021 L0.5,19.930021 Z" id="Path" fill="#A4DBF8" fill-rule="nonzero"></path>
            <path d="M15.46,1 C20.5465425,1 24.67,5.12345745 24.67,10.21 C24.67,15.2965425 20.5465425,19.42 15.46,19.42 L1,19.42 L1,1 L15.46,1 M15.46,0 L0,0 L0,20.4000049 L15.46,20.4000049 C18.1642882,20.4026539 20.7587244,19.3302394 22.6718834,17.4189559 C24.5850425,15.5076725 25.66,12.9142895 25.66,10.21 L25.66,10.21 C25.66,4.57669555 21.0933044,0.01 15.46,0.01 L15.46,0 Z" id="Shape" fill="#1D1D1B" fill-rule="nonzero"></path>
            <path d="M0,56.53 L49.66,56.53 C51.0594252,56.53 52.4013881,55.9733995 53.3899927,54.9829189 C54.3785974,53.9924383 54.9326555,52.6494227 54.9301518,51.25 L54.9301518,51.25 C54.9406507,49.8444708 54.3904453,48.4927052 53.4012612,47.494136 C52.412077,46.4955668 51.0655671,45.9326217 49.66,45.93 L0,45.93 L0,56.53 Z" id="Path" fill="#606F8F" fill-rule="nonzero"></path>
            <path d="M3.35,48.11 L5.71,48.11 C7.38,48.11 8.48,49.11 8.48,51.25 C8.48,53.39 7.38,54.39 5.71,54.39 L3.35,54.39 L3.35,48.11 Z M5.71,53.18 C6.52,53.18 7.03,52.74 7.03,51.74 L7.03,50.74 C7.03,49.74 6.52,49.3 5.71,49.3 L4.71,49.3 L4.71,53.15 L5.71,53.18 Z" id="Shape" fill="#FFFFFF" fill-rule="nonzero"></path>
            <path d="M0,68.5700095 L57.89,68.5700095 C59.2911572,68.5726613 60.6356927,68.0172318 61.6264622,67.0264622 C62.6172318,66.0356927 63.1726613,64.6911572 63.1700095,63.29 L63.1700095,63.29 C63.1700095,61.8896569 62.6137159,60.5466683 61.6235238,59.5564762 C60.6333317,58.5662841 59.2903431,58.01 57.89,58.01 L0,58.01 L0,68.5700095 Z" id="Path" fill="#4D5271" fill-rule="nonzero"></path>
            <polygon id="Path" fill="#FFFFFF" fill-rule="nonzero" points="3.75 66.43 3.75 60.15 8.03 60.15 8.03 61.36 5.12 61.36 5.12 62.65 7.66 62.65 7.66 63.86 5.12 63.86 5.12 65.22 8.03 65.22 8.03 66.43"></polygon>
            <path d="M0,80.61 L66.11,80.61 C69.0260635,80.61 71.3900095,78.2460635 71.3900095,75.33 L71.3900095,75.33 C71.3926613,73.9288428 70.8372318,72.5843073 69.8464622,71.5935378 C68.8556927,70.6027682 67.5111572,70.0473387 66.11,70.0499905 L0,70.0499905 L0,80.61 Z" id="Path" fill="#393551" fill-rule="nonzero"></path>
            <polygon id="Path" fill="#FFFFFF" fill-rule="nonzero" points="3.85 78.47 3.85 72.19 8.02 72.19 8.02 73.4 5.22 73.4 5.22 74.69 7.6 74.69 7.6 75.93 5.22 75.93 5.22 78.5"></polygon>
            <path d="M0,92.65 L74.42,92.65 C77.3360635,92.65 79.7000095,90.2860635 79.7000095,87.37 L79.7000095,87.37 C79.7026613,85.9688428 79.1472318,84.6243073 78.1564622,83.6335378 C77.1656927,82.6427682 75.8211572,82.0873387 74.42,82.0899905 L0,82.0899905 L0,92.65 Z" id="Path" fill="#281B35" fill-rule="nonzero"></path>
            <path d="M7.23,89.51 L7.23,89.51 C7.14,90.14 6.56,90.62 5.62,90.62 C4.18,90.62 3.04,89.5 3.04,87.39 C3.04,85.28 4.19,84.12 5.89,84.12 C6.9200502,84.0631088 7.88001567,84.6422615 8.31,85.58 L7.19,86.21 C7.00268063,85.6586039 6.47152243,85.2990507 5.89,85.33 C5.04,85.33 4.49,85.82 4.49,86.86 L4.49,87.86 C4.49,88.91 5.04,89.39 5.89,89.39 C6.57,89.39 7.12,89.07 7.12,88.46 L7.12,88.14 L5.91,88.14 L5.91,87 L8.39,87 L8.39,90.5 L7.23,90.5 L7.23,89.51 Z" id="Path" fill="#FFFFFF" fill-rule="nonzero"></path>
            <path d="M13.09,17.1 C12.8705237,17.101329 12.6758401,16.9593722 12.61,16.75 L11.82,14.11 L8.36,14.11 L7.56,16.75 C7.50098862,16.9598587 7.30796808,17.1035974 7.09,17.1 L4.32,17.1 C4.15859286,17.1071667 4.00440912,17.0326516 3.90974013,16.9017264 C3.81507114,16.7708012 3.79261962,16.6010335 3.85,16.45 L7.99,3.93 C8.05554563,3.72614456 8.24587176,3.58846183 8.46,3.58998724 L11.84,3.58998724 C12.0541282,3.58846183 12.2444544,3.72614456 12.31,3.93 L16.4,16.5 C16.4520244,16.6523899 16.4258562,16.8206138 16.33,16.95 C16.2377647,17.0785015 16.0881424,17.1533127 15.93,17.1501056 L13.09,17.1 Z M10.86,10.8 L10.07,8.14 L9.3,10.8 L10.86,10.8 Z" id="Shape" fill="#FFFFFF" fill-rule="nonzero"></path>
            <path d="M11.84,4.04 L15.93,16.6 L13.09,16.6 L12.19,13.6 L7.99,13.6 L7.09,16.6 L4.32,16.6 L8.46,4.04 L11.84,4.04 M8.66,11.29 L11.54,11.29 L10.13,6.52 L10.04,6.52 L8.66,11.29 M11.86,3.05 L8.46,3.05 C8.03376497,3.05316567 7.65638721,3.32616235 7.52,3.73 L3.37,16.29 C3.27882831,16.5957804 3.33025221,16.9263626 3.51,17.19 C3.69883138,17.4484142 3.99994607,17.6008303 4.32,17.6 L7.09,17.6 C7.54636993,17.6195036 7.95794848,17.3272829 8.09,16.89 L8.78,14.61 L11.5,14.61 L12.14,16.93 C12.2720515,17.3672829 12.6836301,17.6595036 13.14,17.64 L15.98,17.64 C16.2965273,17.6376502 16.5932525,17.4855786 16.78,17.23 C16.9652329,16.9723495 17.0171861,16.6420759 16.92,16.34 L12.79,3.73 C12.6470061,3.30462906 12.2381524,3.02660853 11.79,3.05 L11.86,3.05 Z M9.96,10.3 L10.08,9.9 L10.19,10.3 L9.96,10.3 Z" id="Shape" fill="#1D1D1B" fill-rule="nonzero"></path>
            <line x1="27.47" y1="10.32" x2="48.73" y2="10.32" id="Path" stroke="#1D1D1B" stroke-width="0.99"></line>
        </g>
    </g>
</svg>
