
<svg viewBox="0 0 81 94" version="1.1" xmlns="http://www.w3.org/2000/svg" xmlns:xlink="http://www.w3.org/1999/xlink">
    <g id="Page-1" stroke="none" stroke-width="1" fill="none" fill-rule="evenodd">
        <g id="b" transform="translate(0.620000, 0.939990)">
            <path d="M0.02,10.550019 L17.95,10.550019 C19.3511572,10.5526708 20.6956927,9.9972413 21.6864622,9.00647174 C22.6772318,8.01570219 23.2326613,6.67116672 23.2300095,5.2700095 L23.2300095,5.2700095 C23.2300095,3.87058426 22.6733995,2.52862145 21.6829189,1.54001677 C20.6924383,0.551412093 19.3494227,-0.00264595455 17.95,-5.68434189e-14 L0.02,-5.68434189e-14 L0.02,10.550019 Z" id="Path" fill="#A4DBF8" fill-rule="nonzero"></path>
            <path d="M7.29,8.4200095 L6.84,6.9200095 L4.74,6.9200095 L4.29,8.4200095 L2.9,8.4200095 L4.97,2.1300095 L6.66,2.1300095 L8.66,8.4200095 L7.29,8.4200095 Z M5.8,3.4200095 L5.8,3.4200095 L5.1,5.8000095 L6.54,5.8000095 L5.8,3.4200095 Z" id="Shape" fill="#FFFFFF" fill-rule="nonzero"></path>
            <path d="M0.02,44.4800095 L41.44,44.4800095 C42.8394252,44.4800095 44.1813881,43.923409 45.1699927,42.9329284 C46.1585974,41.9424478 46.7126555,40.5994322 46.7100095,39.2000095 L46.7100095,39.2000095 C46.7126555,37.8005868 46.1585974,36.4575712 45.1699927,35.4670906 C44.1813881,34.47661 42.8394252,33.9200095 41.44,33.9200095 L0.02,33.9200095 L0.02,44.4800095 Z" id="Path" fill="#7792B1" fill-rule="nonzero"></path>
            <path d="M3.33,39.2500095 C3.33,37.1200095 4.42,35.9500095 6.11,35.9500095 C7.13388216,35.8715951 8.08838526,36.472729 8.46,37.4300095 L7.28,38.0400095 C7.15799464,37.5011081 6.66121022,37.1317043 6.11,37.1700095 C5.31,37.1700095 4.78,37.7100095 4.78,38.7000095 L4.78,39.7000095 C4.78,40.7000095 5.31,41.2300095 6.11,41.2300095 C6.68963204,41.2303841 7.1994866,40.8469735 7.36,40.2900095 L8.48,40.9400095 C8.07803356,41.8835597 7.13480302,42.4805411 6.11,42.4400095 C4.42,42.4500095 3.33,41.3700095 3.33,39.2500095 Z" id="Path" fill="#FFFFFF" fill-rule="nonzero"></path>
            <path d="M0.5,31.9200095 L0.5,12.5300095 L23.66,12.5300095 C27.2523804,12.3300984 30.6608203,14.1329901 32.5172165,17.2150275 C34.3736127,20.297065 34.3736127,24.152954 32.5172165,27.2349915 C30.6608203,30.3170289 27.2523804,32.1199206 23.66,31.9200095 L0.5,31.9200095 Z" id="Path" fill="#8CB4D3" fill-rule="nonzero"></path>
            <path d="M23.66,13.0300095 C28.7465425,13.0300095 32.87,17.153467 32.87,22.2400095 C32.87,27.326552 28.7465425,31.4500095 23.66,31.4500095 L0.99,31.4500095 L0.99,13.0300095 L23.66,13.0300095 M23.66,12.0300095 L0,12.0300095 L0,32.4400095 L23.66,32.4400095 C29.2933044,32.4400095 33.86,27.8733139 33.86,22.2400095 L33.86,22.2400095 C33.86,16.6050851 29.2949217,12.0355285 23.66,12.0300095 Z" id="Shape" fill="#1D1D1B" fill-rule="nonzero"></path>
            <path d="M0.02,56.520019 L49.66,56.520019 C51.0611572,56.5226708 52.4056927,55.9672413 53.3964622,54.9764717 C54.3872318,53.9857022 54.9426613,52.6411667 54.9401517,51.2400095 L54.9401517,51.2400095 C54.9506614,49.8327487 54.3990874,48.4794612 53.4077374,47.4806009 C52.4163874,46.4817407 51.0673011,45.9200095 49.66,45.9200095 L0.02,45.9200095 L0.02,56.520019 Z" id="Path" fill="#606F8F" fill-rule="nonzero"></path>
            <path d="M3.36,48.1000095 L5.73,48.1000095 C7.4,48.1000095 8.49,49.1000095 8.49,51.2400095 C8.49,53.3800095 7.4,54.3800095 5.73,54.3800095 L3.36,54.3800095 L3.36,48.1000095 Z M5.73,53.1700095 C6.54,53.1700095 7.04,52.7300095 7.04,51.7300095 L7.04,50.7300095 C7.04,49.7300095 6.54,49.2900095 5.73,49.2900095 L4.73,49.2900095 L4.73,53.1400095 L5.73,53.1700095 Z" id="Shape" fill="#FFFFFF" fill-rule="nonzero"></path>
            <path d="M0.02,68.5600095 L57.91,68.5600095 C60.8260635,68.5600095 63.19,66.196073 63.19,63.2800095 L63.19,63.2800095 C63.1844971,60.3662284 60.8237811,58.0055124 57.91,58.0000095 L0.02,58.0000095 L0.02,68.5600095 Z" id="Path" fill="#4D5271" fill-rule="nonzero"></path>
            <polygon id="Path" fill="#FFFFFF" fill-rule="nonzero" points="3.77 66.4200095 3.77 60.1400095 8.04 60.1400095 8.04 61.3500095 5.14 61.3500095 5.14 62.6400095 7.66 62.6400095 7.66 63.8500095 5.14 63.8500095 5.14 65.2100095 8.04 65.2100095 8.04 66.4200095"></polygon>
            <path d="M0.02,80.6000095 L66.13,80.6000095 C69.0460635,80.6000095 71.4100095,78.236073 71.4100095,75.3200095 L71.4100095,75.3200095 C71.4126613,73.9188523 70.8572318,72.5743168 69.8664622,71.5835473 C68.8756927,70.5927777 67.5311572,70.0373482 66.13,70.04 L0.02,70.04 L0.02,80.6000095 Z" id="Path" fill="#393551" fill-rule="nonzero"></path>
            <polygon id="Path" fill="#FFFFFF" fill-rule="nonzero" points="3.87 78.4600095 3.87 72.1800095 8.03 72.1800095 8.03 73.3900095 5.24 73.3900095 5.24 74.6800095 7.66 74.6800095 7.66 75.9200095 5.24 75.9200095 5.24 78.4900095"></polygon>
            <path d="M0.02,92.6400095 L74.44,92.6400095 C77.3560635,92.6400095 79.7200095,90.276073 79.7200095,87.3600095 L79.7200095,87.3600095 C79.7226613,85.9588523 79.1672318,84.6143168 78.1764622,83.6235473 C77.1856927,82.6327777 75.8411572,82.0773482 74.44,82.08 L0.02,82.08 L0.02,92.6400095 Z" id="Path" fill="#281B35" fill-rule="nonzero"></path>
            <path d="M7.25,89.5000095 L7.25,89.5000095 C7.16,90.1300095 6.58,90.6100095 5.63,90.6100095 C4.19,90.6100095 3.06,89.4900095 3.06,87.3800095 C3.06,85.2700095 4.2,84.1100095 5.91,84.1100095 C6.9400502,84.0531183 7.90001567,84.632271 8.33,85.5700095 L7.21,86.2000095 C7.01986969,85.6507638 6.49057027,85.2924688 5.91,85.3200095 C5.06,85.3200095 4.51,85.8100095 4.51,86.8500095 L4.51,87.8500095 C4.51,88.9000095 5.06,89.3800095 5.91,89.3800095 C6.59,89.3800095 7.14,89.0600095 7.14,88.4500095 L7.14,88.1300095 L5.93,88.1300095 L5.93,86.9900095 L8.4,86.9900095 L8.4,90.4900095 L7.25,90.4900095 L7.25,89.5000095 Z" id="Path" fill="#FFFFFF" fill-rule="nonzero"></path>
            <path d="M4.29,28.9900095 C4.01938047,28.9900095 3.79989781,28.770629 3.79989781,28.5000095 L3.79989781,15.9200095 C3.79731209,15.7883295 3.84774789,15.6611116 3.93993366,15.5670445 C4.03211943,15.4729774 4.15829261,15.4199821 4.29,15.4200095 L10.4,15.4200095 C11.4176743,15.3373554 12.4212868,15.69939 13.1518377,16.4126838 C13.8823886,17.1259776 14.268307,18.1206504 14.21,19.1400095 C14.3199975,20.2166607 13.8568437,21.2720439 12.99,21.9200095 C14.0760839,22.5168384 14.7249382,23.6824449 14.66,24.9200095 C14.7170566,25.9583929 14.3537969,26.9760442 13.6521001,27.7435839 C12.9504033,28.5111235 11.9693246,28.963955 10.93,29.0000095 L4.29,28.9900095 Z M10.18,25.7000095 C10.79,25.7000095 10.86,25.3300095 10.86,25.0600095 L10.86,24.4500095 C10.86,24.1700095 10.79,23.8100095 10.18,23.8100095 L7.53,23.8100095 L7.53,25.7000095 L10.18,25.7000095 Z M9.75,20.5800095 C10.2,20.5800095 10.41,20.3700095 10.41,19.9300095 L10.41,19.3900095 C10.4374581,19.207922 10.3768171,19.0236145 10.246606,18.8934035 C10.116395,18.7631925 9.93208755,18.7025514 9.75,18.7300095 L7.53,18.7300095 L7.53,20.5800095 L9.75,20.5800095 Z" id="Shape" fill="#FFFFFF" fill-rule="nonzero"></path>
            <path d="M10.4,15.9200095 C11.2875974,15.8249758 12.1714123,16.1301527 12.8112645,16.7526072 C13.4511168,17.3750616 13.7805356,18.2501302 13.71,19.1400095 C13.71,21.0700095 12.65,21.7900095 11.37,21.8400095 L11.37,21.9200095 C12.1556985,21.9033964 12.9117221,22.220105 13.4509859,22.7917628 C13.9902498,23.3634206 14.2623671,24.136614 14.2,24.9200095 C14.2544687,25.8277259 13.9419714,26.7192678 13.3327145,27.3943396 C12.7234575,28.0694113 11.8685293,28.4714056 10.96,28.5100095 L4.29,28.5100095 L4.29,15.9200095 L10.4,15.9200095 M7.03,21.0700095 L9.75,21.0700095 C10.0627213,21.0979088 10.3717209,20.9857417 10.5937266,20.7637361 C10.8157322,20.5417304 10.9278993,20.2327308 10.9,19.9200095 L10.9,19.3800095 C10.9310771,19.0656398 10.82032,18.753791 10.5979126,18.5294496 C10.3755052,18.3051083 10.064627,18.1916553 9.75,18.2200095 L7.03,18.2200095 L7.03,21.0700095 M7.03,26.1800095 L10.18,26.1800095 C10.4922496,26.213406 10.8032346,26.1066323 11.0291153,25.888474 C11.254996,25.6703158 11.3725187,25.3632315 11.35,25.0500095 L11.35,24.4400095 C11.3756606,24.1251177 11.2595212,23.8151922 11.0332387,23.5947119 C10.8069563,23.3742315 10.4941192,23.2661799 10.18,23.3000095 L7.03,23.3000095 L7.03,26.1800095 M10.4,14.9200095 L4.29,14.9200095 C3.73771525,14.9200095 3.29,15.3677248 3.29,15.9200095 L3.29,28.4900095 C3.29,29.0422943 3.73771525,29.4900095 4.29,29.4900095 L10.96,29.4900095 C12.1300167,29.4537606 13.2365778,28.9496216 14.031728,28.0905586 C14.8268782,27.2314956 15.2441348,26.0893352 15.19,24.9200095 C15.2355857,23.7336023 14.7298059,22.5928289 13.82,21.8300095 C14.4213965,21.0710867 14.7206175,20.1164293 14.66,19.1500095 C14.7286264,18.0031687 14.3008125,16.8821889 13.4855574,16.0726751 C12.6703024,15.2631612 11.5463272,14.8432801 10.4,14.9200095 L10.4,14.9200095 Z M8.02,19.2100095 L9.75,19.2100095 C9.79929382,19.1981252 9.85070618,19.1981252 9.9,19.2100095 L9.9,19.2100095 C9.90414317,19.2565842 9.90414317,19.3034348 9.9,19.3500095 L9.9,19.9200095 C9.90617095,19.9698191 9.90617095,20.0201999 9.9,20.0700095 L8.02,20.0700095 L8.02,19.2100095 Z M8.02,24.2800095 L10.18,24.2800095 C10.2388408,24.2633297 10.3011592,24.2633297 10.36,24.2800095 L10.36,24.2800095 C10.36,24.2800095 10.36,24.2800095 10.36,24.4000095 L10.36,25.0100095 C10.3711199,25.0492367 10.3711199,25.0907823 10.36,25.1300095 L10.36,25.1300095 C10.3068702,25.1365987 10.2531298,25.1365987 10.2,25.1300095 L8.02,25.1300095 L8.02,24.2300095 L8.02,24.2800095 Z" id="Shape" fill="#1D1D1B" fill-rule="nonzero"></path>
            <line x1="35.8" y1="22.2100095" x2="57.06" y2="22.2100095" id="Path" stroke="#1D1D1B" stroke-width="0.99"></line>
        </g>
    </g>
</svg>
