
<svg viewBox="0 0 81 94" version="1.1" xmlns="http://www.w3.org/2000/svg" xmlns:xlink="http://www.w3.org/1999/xlink">
    <g id="Page-1" stroke="none" stroke-width="1" fill="none" fill-rule="evenodd">
        <g id="c" transform="translate(0.620000, 0.940000)">
            <path d="M0.02,10.55 L17.95,10.55 C20.8660635,10.55 23.23,8.18606348 23.23,5.27 L23.23,5.27 C23.2244845,2.35784253 20.8621627,1.13686838e-13 17.95,1.13686838e-13 L0.02,1.13686838e-13 L0.02,10.55 Z" id="Path" fill="#A4DBF8" fill-rule="nonzero"></path>
            <path d="M7.28,8.42 L6.83,6.92 L4.73,6.92 L4.28,8.42 L2.9,8.42 L4.97,2.13 L6.66,2.13 L8.66,8.42 L7.28,8.42 Z M5.79,3.42 L5.79,3.42 L5.1,5.8 L6.54,5.8 L5.79,3.42 Z" id="Shape" fill="#FFFFFF" fill-rule="nonzero"></path>
            <path d="M0.5,43.99 L0.5,24.57 L31.6,24.57 C36.9626849,24.57 41.31,28.9173151 41.31,34.28 C41.31,39.6426849 36.9626849,43.99 31.6,43.99 L0.5,43.99 Z" id="Path" fill="#7792B1" fill-rule="nonzero"></path>
            <path d="M31.6,25.07 C36.6865425,25.07 40.81,29.1934575 40.81,34.28 C40.81,39.3665425 36.6865425,43.49 31.6,43.49 L0.99,43.49 L0.99,25.07 L31.6,25.07 M31.6,24.07 L-2.27373675e-13,24.07 L-2.27373675e-13,44.48 L31.6,44.48 C37.2333044,44.48 41.8,39.9133044 41.8,34.28 L41.8,34.28 C41.8,28.6450756 37.2349217,24.075519 31.6,24.07 L31.6,24.07 Z" id="Shape" fill="#1D1D1B" fill-rule="nonzero"></path>
            <path d="M0.02,56.52 L49.66,56.52 C52.5760635,56.52 54.9400852,54.1560635 54.9400852,51.24 L54.9400852,51.24 C54.9479787,49.8335455 54.3955383,48.4818132 53.4047687,47.4835378 C52.4139992,46.4852624 51.0664747,45.9226361 49.66,45.92 L0.02,45.92 L0.02,56.52 Z" id="Path" fill="#606F8F" fill-rule="nonzero"></path>
            <path d="M3.36,48.1 L5.72,48.1 C7.39,48.1 8.49,49.1 8.49,51.24 C8.49,53.38 7.39,54.38 5.72,54.38 L3.36,54.38 L3.36,48.1 Z M5.72,53.17 C6.53,53.17 7.04,52.73 7.04,51.73 L7.04,50.73 C7.04,49.73 6.53,49.29 5.72,49.29 L4.72,49.29 L4.72,53.14 L5.72,53.17 Z" id="Shape" fill="#FFFFFF" fill-rule="nonzero"></path>
            <path d="M0.02,68.5600095 L57.9,68.5600095 C59.3011572,68.5626613 60.6456927,68.0072318 61.6364622,67.0164622 C62.6272318,66.0256927 63.1826613,64.6811572 63.1800095,63.28 L63.1800095,63.28 C63.1800095,61.8796569 62.6237159,60.5366683 61.6335238,59.5464762 C60.6433317,58.5562841 59.3003431,58 57.9,58 L0.02,58 L0.02,68.5600095 Z" id="Path" fill="#4D5271" fill-rule="nonzero"></path>
            <polygon id="Path" fill="#FFFFFF" fill-rule="nonzero" points="3.76 66.42 3.76 60.14 8.04 60.14 8.04 61.35 5.13 61.35 5.13 62.64 7.66 62.64 7.66 63.85 5.13 63.85 5.13 65.21 8.04 65.21 8.04 66.42"></polygon>
            <path d="M0.02,80.6 L66.12,80.6 C69.0360635,80.6 71.4000095,78.2360635 71.4000095,75.32 L71.4000095,75.32 C71.4026613,73.9188428 70.8472318,72.5743073 69.8564622,71.5835378 C68.8656927,70.5927682 67.5211572,70.0373387 66.12,70.0399905 L0.02,70.0399905 L0.02,80.6 Z" id="Path" fill="#393551" fill-rule="nonzero"></path>
            <polygon id="Path" fill="#FFFFFF" fill-rule="nonzero" points="3.86 78.46 3.86 72.18 8.03 72.18 8.03 73.39 5.23 73.39 5.23 74.68 7.66 74.68 7.66 75.92 5.23 75.92 5.23 78.49"></polygon>
            <path d="M0.02,92.64 L74.43,92.64 C77.3460635,92.64 79.7100095,90.2760635 79.7100095,87.36 L79.7100095,87.36 C79.7126613,85.9588428 79.1572318,84.6143073 78.1664622,83.6235378 C77.1756927,82.6327682 75.8311572,82.0773387 74.43,82.0799905 L0.02,82.0799905 L0.02,92.64 Z" id="Path" fill="#281B35" fill-rule="nonzero"></path>
            <path d="M7.24,89.5 L7.24,89.5 C7.15,90.13 6.57,90.61 5.63,90.61 C4.19,90.61 3.05,89.49 3.05,87.38 C3.05,85.27 4.2,84.11 5.9,84.11 C6.9300502,84.0531088 7.89001567,84.6322615 8.32,85.57 L7.2,86.2 C7.01268063,85.6486039 6.48152243,85.2890507 5.9,85.32 C5.05,85.32 4.5,85.81 4.5,86.85 L4.5,87.85 C4.5,88.9 5.05,89.38 5.9,89.38 C6.58,89.38 7.13,89.06 7.13,88.45 L7.13,88.13 L5.92,88.13 L5.92,86.99 L8.4,86.99 L8.4,90.49 L7.24,90.49 L7.24,89.5 Z" id="Path" fill="#FFFFFF" fill-rule="nonzero"></path>
            <path d="M0.02,22.59 L26.32,22.59 C29.2360635,22.59 31.6,20.2260635 31.6,17.31 L31.6,17.31 C31.5944971,14.3962189 29.2337811,12.0355029 26.32,12.03 L0.02,12.03 L0.02,22.59 Z" id="Path" fill="#8CB4D3" fill-rule="nonzero"></path>
            <path d="M3.25,14.17 L6.3,14.17 C6.74127583,14.1312327 7.17750821,14.2868954 7.49455863,14.5962598 C7.81160905,14.9056241 7.97792845,15.3379058 7.95,15.78 C7.95,16.78 7.42,17.11 6.78,17.13 L6.78,17.19 C7.16812117,17.1809714 7.54233187,17.33467 7.81205942,17.613895 C8.08178698,17.89312 8.22244895,18.2724234 8.2,18.66 C8.22723124,19.1133638 8.07083526,19.558607 7.76606997,19.8953538 C7.46130468,20.2321007 7.03382429,20.4320049 6.58,20.45 L3.25,20.45 L3.25,14.17 Z M4.66,16.75 L6.02,16.75 C6.17723689,16.7621507 6.33192807,16.7049576 6.44344281,16.5934428 C6.55495756,16.4819281 6.61215068,16.3272369 6.6,16.17 L6.6,15.92 C6.61215068,15.7627631 6.55495756,15.6080719 6.44344281,15.4965572 C6.33192807,15.3850424 6.17723689,15.3278493 6.02,15.34 L4.66,15.34 L4.66,16.75 Z M4.66,19.3 L6.24,19.3 C6.39787231,19.3185342 6.55572784,19.2652315 6.67004802,19.1547865 C6.7843682,19.0443416 6.84308096,18.8884174 6.83,18.73 L6.83,18.43 C6.83946758,18.272546 6.77961615,18.118824 6.66617204,18.0092254 C6.55272794,17.8996269 6.39703407,17.8451102 6.24,17.86 L4.66,17.86 L4.66,19.3 Z" id="Shape" fill="#FFFFFF" fill-rule="nonzero"></path>
            <path d="M9.75,41.27 C5.96,41.27 3.69,38.69 3.69,34.37 C3.69,30.05 5.96,27.28 9.75,27.28 C11.9943773,27.1137394 14.0841799,28.4325468 14.9,30.53 C15.009422,30.767849 14.912536,31.0496991 14.68,31.17 L12.32,32.4 C12.2440757,32.4150882 12.1659243,32.4150882 12.09,32.4 C12.027459,32.4141673 11.962541,32.4141673 11.9,32.4 C11.7642385,32.3448266 11.6611182,32.2306577 11.62,32.09 C11.4491208,31.212082 10.6405062,30.606702 9.75,30.69 C8.37,30.69 7.58,31.63 7.58,33.26 L7.58,35.26 C7.58,36.89 8.37,37.82 9.75,37.82 C10.6904075,37.8148679 11.5103874,37.1793835 11.75,36.27 C11.8040723,36.1349772 11.9132223,36.0294655 12.05,35.98 C12.1029051,35.9704424 12.1570949,35.9704424 12.21,35.98 C12.2985551,35.9770187 12.385869,36.0014666 12.46,36.05 L14.7,37.34 C14.9227531,37.474271 15.005366,37.7568942 14.89,37.99 C14.0146304,40.0366725 11.974968,41.3382469 9.75,41.27 Z" id="Path" fill="#FFFFFF" fill-rule="nonzero"></path>
            <path d="M9.75,27.78 C11.8089624,27.6256242 13.723129,28.8474326 14.45,30.78 L12.09,31.92 C11.8579497,30.8332097 10.8580654,30.0854329 9.75,30.17 C8.15,30.17 7.09,31.25 7.09,33.23 L7.09,35.23 C7.09,37.23 8.15,38.29 9.75,38.29 C10.9126614,38.3010058 11.9378839,37.5300385 12.25,36.41 L14.49,37.71 C13.6906664,39.6010053 11.8011668,40.7968911 9.75,40.71 C6.37,40.71 4.19,38.55 4.19,34.3 C4.19,30.05 6.37,27.71 9.75,27.71 M9.75,26.71 C5.75,26.71 3.2,29.61 3.2,34.29 C3.2,38.97 5.65,41.69 9.75,41.69 C12.1819061,41.7803629 14.418987,40.3657967 15.38,38.13 C15.6072702,37.6587498 15.4328776,37.0919739 14.98,36.83 L12.75,35.54 C12.4981789,35.3937543 12.1951177,35.3645436 11.92,35.46 C11.6429604,35.558851 11.4234929,35.7746608 11.32,36.05 C11.157185,36.7806958 10.4982706,37.2927184 9.75,37.27 C8.64,37.27 8.08,36.58 8.08,35.21 L8.08,33.21 C8.08,31.84 8.64,31.14 9.75,31.14 C10.4047459,31.0538204 11.0135686,31.4918224 11.14,32.14 C11.2757475,32.5733092 11.6863999,32.8607659 12.14,32.84 C12.2999233,32.8406435 12.4576684,32.8029218 12.6,32.73 L14.96,31.5 C15.4223717,31.2520133 15.6144604,30.6888442 15.4,30.21 C14.497875,27.9421714 12.2351445,26.515843 9.8,26.68 L9.75,26.71 Z" id="Shape" fill="#1D1D1B" fill-rule="nonzero"></path>
            <line x1="43.6" y1="34.28" x2="64.86" y2="34.28" id="Path" stroke="#1D1D1B" stroke-width="0.99"></line>
        </g>
    </g>
</svg>
