
<svg viewBox="0 0 81 94" version="1.1" xmlns="http://www.w3.org/2000/svg" xmlns:xlink="http://www.w3.org/1999/xlink">
    <g id="Page-1" stroke="none" stroke-width="1" fill="none" fill-rule="evenodd">
        <g id="d" transform="translate(0.620000, 0.939990)">
            <path d="M0.01,10.550019 L17.94,10.550019 C19.3411572,10.5526708 20.6856927,9.9972413 21.6764622,9.00647174 C22.6672318,8.01570219 23.2226613,6.67116672 23.2200095,5.2700095 L23.2200095,5.2700095 C23.2200095,3.87058426 22.6633995,2.52862145 21.6729189,1.54001677 C20.6824383,0.551412093 19.3394227,-0.00264595455 17.94,1.13686838e-13 L0.01,1.13686838e-13 L0.01,10.550019 Z" id="Path" fill="#A4DBF8" fill-rule="nonzero"></path>
            <path d="M7.28,8.4200095 L6.83,6.9200095 L4.73,6.9200095 L4.28,8.4200095 L2.89,8.4200095 L4.96,2.1300095 L6.66,2.1300095 L8.66,8.4200095 L7.28,8.4200095 Z M5.79,3.4200095 L5.79,3.4200095 L5.09,5.8000095 L6.53,5.8000095 L5.79,3.4200095 Z" id="Shape" fill="#FFFFFF" fill-rule="nonzero"></path>
            <path d="M0.01,34.6300095 L34.41,34.6300095 C37.3143409,34.6135073 39.66,32.2543973 39.66,29.3500095 L39.66,29.3500095 C39.6544971,26.4362284 37.2937811,24.0755124 34.38,24.0700095 L0.01,24.0700095 L0.01,34.6300095 Z" id="Path" fill="#7792B1" fill-rule="nonzero"></path>
            <path d="M3.31,29.4000095 C3.31,27.2700095 4.4,26.1000095 6.1,26.1000095 C7.12388216,26.0215951 8.07838526,26.622729 8.45,27.5800095 L7.27,28.1900095 C7.14799464,27.6511081 6.65121022,27.2817043 6.1,27.3200095 C5.3,27.3200095 4.76,27.8600095 4.76,28.8500095 L4.76,29.8500095 C4.76,30.8500095 5.3,31.3800095 6.1,31.3800095 C6.67963204,31.3803841 7.1894866,30.9969735 7.35,30.4400095 L8.46,31.0900095 C8.06628246,32.0359062 7.12357328,32.6350858 6.1,32.5900095 C4.4,32.6000095 3.31,31.5200095 3.31,29.4000095 Z" id="Path" fill="#FFFFFF" fill-rule="nonzero"></path>
            <path d="M0.5,56.0200095 L0.5,36.6100095 L40.26,36.6100095 C43.8015527,36.4963118 47.1238441,38.3208048 48.9282581,41.3703315 C50.7326721,44.4198582 50.7326721,48.2101608 48.9282581,51.2596875 C47.1238441,54.3092142 43.8015527,56.1337073 40.26,56.0200095 L0.5,56.0200095 Z" id="Path" fill="#606F8F" fill-rule="nonzero"></path>
            <path d="M40.26,37.1000095 C45.2311825,37.2637933 49.1763966,41.3411296 49.1763966,46.3150095 C49.1763966,51.2888894 45.2311825,55.3662257 40.26,55.5300095 L0.99,55.5300095 L0.99,37.1000095 L40.26,37.1000095 M40.26,36.1000095 L0,36.1000095 L0,56.5200095 L40.26,56.5200095 C45.7717377,56.3474514 50.1505082,51.8294477 50.1505082,46.3150095 C50.1505082,40.8005713 45.7717377,36.2825676 40.26,36.1100095 L40.26,36.1000095 Z" id="Shape" fill="#1D1D1B" fill-rule="nonzero"></path>
            <path d="M0.01,68.5600095 L57.9,68.5600095 C59.2994252,68.5600095 60.6413881,68.003409 61.6299927,67.0129284 C62.6185974,66.0224478 63.1726555,64.6794322 63.1700095,63.2800095 L63.1700095,63.2800095 C63.1700095,60.3678468 60.8121575,58.005525 57.9,58.0000095 L0.01,58.0000095 L0.01,68.5600095 Z" id="Path" fill="#4D5271" fill-rule="nonzero"></path>
            <polygon id="Path" fill="#FFFFFF" fill-rule="nonzero" points="3.76 66.4200095 3.76 60.1400095 8.03 60.1400095 8.03 61.3500095 5.12 61.3500095 5.12 62.6400095 7.66 62.6400095 7.66 63.8500095 5.16 63.8500095 5.16 65.2100095 8.07 65.2100095 8.07 66.4200095"></polygon>
            <path d="M0.01,80.6000095 L66.12,80.6000095 C69.0337811,80.5945066 71.3944971,78.2337906 71.4,75.3200095 L71.4,75.3200095 C71.4,72.403946 69.0360635,70.0400095 66.12,70.0400095 L0.01,70.0400095 L0.01,80.6000095 Z" id="Path" fill="#393551" fill-rule="nonzero"></path>
            <polygon id="Path" fill="#FFFFFF" fill-rule="nonzero" points="3.86 78.4600095 3.86 72.1800095 8.02 72.1800095 8.02 73.3900095 5.22 73.3900095 5.22 74.6800095 7.66 74.6800095 7.66 75.9200095 5.22 75.9200095 5.22 78.4900095"></polygon>
            <path d="M0.01,92.6400095 L74.43,92.6400095 C77.3437811,92.6345066 79.7044971,90.2737906 79.71,87.3600095 L79.71,87.3600095 C79.71,84.443946 77.3460635,82.0800095 74.43,82.0800095 L0.01,82.0800095 L0.01,92.6400095 Z" id="Path" fill="#281B35" fill-rule="nonzero"></path>
            <path d="M7.24,89.5000095 L7.24,89.5000095 C7.15,90.1300095 6.58,90.6100095 5.63,90.6100095 C4.19,90.6100095 3.06,89.4900095 3.06,87.3800095 C3.06,85.2700095 4.2,84.1100095 5.9,84.1100095 C6.93147289,84.0473661 7.89444081,84.6283302 8.32,85.5700095 L7.21,86.2000095 C7.01883746,85.6470551 6.48418367,85.2878984 5.9,85.3200095 C5.06,85.3200095 4.51,85.8100095 4.51,86.8500095 L4.51,87.8500095 C4.51,88.9000095 5.06,89.3800095 5.9,89.3800095 C6.59,89.3800095 7.14,89.0600095 7.14,88.4500095 L7.14,88.1300095 L5.92,88.1300095 L5.92,86.9900095 L8.39,86.9900095 L8.39,90.4900095 L7.24,90.4900095 L7.24,89.5000095 Z" id="Path" fill="#FFFFFF" fill-rule="nonzero"></path>
            <path d="M0.01,22.590019 L26.31,22.590019 C27.7111572,22.5926708 29.0556927,22.0372413 30.0464622,21.0464717 C31.0372318,20.0557022 31.5926613,18.7111667 31.5900095,17.3100095 L31.5900095,17.3100095 C31.5900095,15.9096664 31.0337159,14.5666778 30.0435238,13.5764857 C29.0533317,12.5862936 27.7103431,12.0300095 26.31,12.0300095 L0.01,12.0300095 L0.01,22.590019 Z" id="Path" fill="#8CB4D3" fill-rule="nonzero"></path>
            <path d="M3.24,14.1700095 L6.29,14.1700095 C6.7329246,14.1281297 7.1719617,14.2824057 7.49132654,14.5921511 C7.81069137,14.9018965 7.97831829,15.3360115 7.95,15.7800095 C7.95,16.7800095 7.42,17.1100095 6.78,17.1300095 L6.78,17.1900095 C7.16732157,17.180755 7.54069401,17.3347424 7.80888427,17.614345 C8.07707454,17.8939476 8.21537786,18.2734094 8.19,18.6600095 C8.21723124,19.1133733 8.06083526,19.5586165 7.75606997,19.8953633 C7.45130468,20.2321102 7.02382429,20.4320144 6.57,20.4500095 L3.24,20.4500095 L3.24,14.1700095 Z M4.66,16.7500095 L6.02,16.7500095 C6.17723689,16.7621602 6.33192807,16.7049671 6.44344281,16.5934523 C6.55495756,16.4819376 6.61215068,16.3272464 6.6,16.1700095 L6.6,15.9200095 C6.61215068,15.7627726 6.55495756,15.6080814 6.44344281,15.4965667 C6.33192807,15.3850519 6.17723689,15.3278588 6.02,15.3400095 L4.66,15.3400095 L4.66,16.7500095 Z M4.66,19.3000095 L6.24,19.3000095 C6.39711844,19.3191217 6.55438813,19.2656344 6.66727552,19.1546934 C6.78016291,19.0437523 6.83637706,18.8874365 6.82,18.7300095 L6.82,18.4300095 C6.83259727,18.2735257 6.77517256,18.1195091 6.66320276,18.0094698 C6.55123296,17.8994306 6.3962411,17.8446929 6.24,17.8600095 L4.66,17.8600095 L4.66,19.3000095 Z" id="Shape" fill="#FFFFFF" fill-rule="nonzero"></path>
            <path d="M4.71,53.1200095 C4.43771619,53.1200095 4.21544567,52.9022389 4.21,52.6300095 L4.21,40.0600095 C4.21532011,39.786101 4.43609155,39.5653296 4.71,39.5600095 L9.45,39.5600095 C13.22,39.5600095 15.45,42.1000095 15.45,46.3400095 C15.45,50.5800095 13.2,53.1200095 9.45,53.1200095 L4.71,53.1200095 Z M9.45,49.7000095 C10.9,49.7000095 11.58,48.9400095 11.58,47.3200095 L11.58,45.3200095 C11.58,43.7000095 10.9,42.9400095 9.45,42.9400095 L7.94,42.9400095 L7.94,49.6500095 L9.45,49.7000095 Z" id="Shape" fill="#FFFFFF" fill-rule="nonzero"></path>
            <path d="M9.45,40.0600095 C12.78,40.0600095 14.97,42.1700095 14.97,46.3400095 C14.97,50.5100095 12.78,52.6300095 9.45,52.6300095 L4.71,52.6300095 L4.71,40.0600095 L9.45,40.0600095 M7.45,50.2000095 L9.45,50.2000095 C11.07,50.2000095 12.07,49.3200095 12.07,47.3200095 L12.07,45.3200095 C12.07,43.3200095 11.07,42.4400095 9.45,42.4400095 L7.45,42.4400095 L7.45,50.1500095 M9.45,39.0200095 L4.71,39.0200095 C4.15771525,39.0200095 3.71,39.4677248 3.71,40.0200095 L3.71,52.5900095 C3.71,53.1422943 4.15771525,53.5900095 4.71,53.5900095 L9.45,53.5900095 C13.53,53.5900095 15.97,50.8700095 15.97,46.3100095 C15.97,41.7500095 13.53,39.0400095 9.45,39.0400095 L9.45,39.0200095 Z M8.45,43.4300095 L9.45,43.4300095 C10.3,43.4300095 11.08,43.6600095 11.08,45.3200095 L11.08,47.3200095 C11.08,48.9800095 10.3,49.2100095 9.45,49.2100095 L8.45,49.2100095 L8.45,43.4800095 L8.45,43.4300095 Z" id="Shape" fill="#1D1D1B" fill-rule="nonzero"></path>
            <line x1="52.49" y1="46.3400095" x2="73.75" y2="46.3400095" id="Path" stroke="#1D1D1B" stroke-width="0.99"></line>
        </g>
    </g>
</svg>
