
<svg viewBox="0 0 83 94" version="1.1" xmlns="http://www.w3.org/2000/svg" xmlns:xlink="http://www.w3.org/1999/xlink">
    <g id="Page-1" stroke="none" stroke-width="1" fill="none" fill-rule="evenodd">
        <g id="e" transform="translate(0.620000, 0.940000)">
            <path d="M0,10.55 L17.93,10.55 C20.8460635,10.55 23.21,8.18606348 23.21,5.27 L23.21,5.27 C23.2044845,2.35784253 20.8421627,0 17.93,0 L0,0 L0,10.55 Z" id="Path" fill="#A4DBF8" fill-rule="nonzero"></path>
            <path d="M7.26,8.42 L6.81,6.92 L4.71,6.92 L4.26,8.42 L2.88,8.42 L4.95,2.13 L6.66,2.13 L8.66,8.42 L7.26,8.42 Z M5.78,3.42 L5.73,3.42 L5.04,5.8 L6.48,5.8 L5.78,3.42 Z" id="Shape" fill="#FFFFFF" fill-rule="nonzero"></path>
            <path d="M0,34.63 L34.4,34.63 C35.7976917,34.6273503 37.1370847,34.0695771 38.1235266,33.0793844 C39.1099685,32.0891918 39.6626547,30.7476917 39.6600095,29.35 L39.6600095,29.35 C39.6600095,26.4378373 37.3021575,24.0755155 34.39,24.07 L0,24.07 L0,34.63 Z" id="Path" fill="#7792B1" fill-rule="nonzero"></path>
            <path d="M3.3,29.4 C3.3,27.27 4.39,26.1 6.08,26.1 C7.10471292,26.01822 8.06106173,26.6205162 8.43,27.58 L7.25,28.19 C7.13183439,27.6486098 6.63248823,27.2773011 6.08,27.32 C5.28,27.32 4.75,27.86 4.75,28.85 L4.75,29.85 C4.75,30.85 5.28,31.38 6.08,31.38 C6.66190493,31.3872538 7.1754647,31.0010569 7.33,30.44 L8.45,31.09 C8.05033318,32.0355027 7.10558341,32.6334456 6.08,32.59 C4.39,32.6 3.3,31.52 3.3,29.4 Z" id="Path" fill="#FFFFFF" fill-rule="nonzero"></path>
            <path d="M0.5,68.06 L0.5,48.65 L48.5,48.65 C52.0415527,48.5363022 55.3638441,50.3607953 57.1682581,53.410322 C58.9726721,56.4598487 58.9726721,60.2501513 57.1682581,63.299678 C55.3638441,66.3492047 52.0415527,68.1736978 48.5,68.06 L0.5,68.06 Z" id="Path" fill="#4D5271" fill-rule="nonzero"></path>
            <path d="M48.54,49.14 C53.5111825,49.3037838 57.4563966,53.3811201 57.4563966,58.355 C57.4563966,63.3288799 53.5111825,67.4062162 48.54,67.57 L0.99,67.57 L0.99,49.14 L48.54,49.14 M48.54,48.14 L0,48.14 L0,68.55 L48.54,68.55 C54.0517377,68.3774419 58.4305082,63.8594382 58.4305082,58.345 C58.4305082,52.8305618 54.0517377,48.3125581 48.54,48.14 L48.54,48.14 Z" id="Shape" fill="#1D1D1B" fill-rule="nonzero"></path>
            <path d="M0,46.67 L42.77,46.67 C45.6860635,46.67 48.0500095,44.3060635 48.0500095,41.39 L48.0500095,41.39 C48.0526613,39.9888428 47.4972318,38.6443073 46.5064622,37.6535378 C45.5156927,36.6627682 44.1711572,36.1073387 42.77,36.1099905 L0,36.1099905 L0,46.67 Z" id="Path" fill="#606F8F" fill-rule="nonzero"></path>
            <path d="M3.34,38.25 L5.71,38.25 C7.37,38.25 8.47,39.25 8.47,41.39 C8.47,43.53 7.37,44.53 5.71,44.53 L3.34,44.53 L3.34,38.25 Z M5.71,43.32 C6.52,43.32 7.02,42.87 7.02,41.88 L7.02,40.88 C7.02,39.88 6.52,39.44 5.71,39.44 L4.71,39.44 L4.71,43.3 L5.71,43.32 Z" id="Shape" fill="#FFFFFF" fill-rule="nonzero"></path>
            <path d="M0,80.6 L66.11,80.6 C69.0221575,80.5944845 71.3800095,78.2321627 71.3800095,75.32 L71.3800095,75.32 C71.3826555,73.9205773 70.8285974,72.5775617 69.8399927,71.5870811 C68.8513881,70.5966005 67.5094252,70.04 66.11,70.04 L0,70.04 L0,80.6 Z" id="Path" fill="#393551" fill-rule="nonzero"></path>
            <polygon id="Path" fill="#FFFFFF" fill-rule="nonzero" points="3.84 78.46 3.84 72.18 8.01 72.18 8.01 73.39 5.21 73.39 5.21 74.68 7.6 74.68 7.6 75.92 5.21 75.92 5.21 78.49"></polygon>
            <path d="M0,92.64 L74.42,92.64 C77.3321575,92.6344845 79.6900095,90.2721627 79.6900095,87.36 L79.6900095,87.36 C79.6926555,85.9605773 79.1385974,84.6175617 78.1499927,83.6270811 C77.1613881,82.6366005 75.8194252,82.08 74.42,82.08 L0,82.08 L0,92.64 Z" id="Path" fill="#281B35" fill-rule="nonzero"></path>
            <path d="M7.23,89.5 L7.23,89.5 C7.14,90.13 6.57,90.61 5.62,90.61 C4.18,90.61 3.05,89.49 3.05,87.38 C3.05,85.27 4.19,84.11 5.89,84.11 C6.92075955,84.0502492 7.88221456,84.6303006 8.31,85.57 L7.2,86.2 C7.00883746,85.6470456 6.47418367,85.2878889 5.89,85.32 C5.04,85.32 4.5,85.81 4.5,86.85 L4.5,87.85 C4.5,88.9 5.04,89.38 5.89,89.38 C6.57,89.38 7.12,89.06 7.12,88.45 L7.12,88.13 L5.9,88.13 L5.9,86.99 L8.38,86.99 L8.38,90.49 L7.23,90.49 L7.23,89.5 Z" id="Path" fill="#FFFFFF" fill-rule="nonzero"></path>
            <path d="M0,22.5900095 L26.3,22.5900095 C27.7011572,22.5926613 29.0456927,22.0372318 30.0364622,21.0464622 C31.0272318,20.0556927 31.5826613,18.7111572 31.5800095,17.31 L31.5800095,17.31 C31.5800095,15.9096569 31.0237159,14.5666683 30.0335238,13.5764762 C29.0433317,12.5862841 27.7003431,12.03 26.3,12.03 L0,12.03 L0,22.5900095 Z" id="Path" fill="#8CB4D3" fill-rule="nonzero"></path>
            <path d="M3.23,14.17 L6.28,14.17 C6.7229246,14.1281202 7.1619617,14.2823962 7.48132654,14.5921416 C7.80069137,14.901887 7.96831829,15.336002 7.94,15.78 C7.94,16.78 7.41,17.11 6.77,17.13 L6.77,17.19 C7.15732157,17.1807455 7.53069401,17.3347329 7.79888427,17.6143355 C8.06707454,17.8939381 8.20537786,18.2733999 8.18,18.66 C8.20723124,19.1133638 8.05083526,19.558607 7.74606997,19.8953538 C7.44130468,20.2321007 7.01382429,20.4320049 6.56,20.45 L3.23,20.45 L3.23,14.17 Z M4.6,16.75 L5.96,16.75 C6.11648383,16.7625973 6.27050036,16.7051726 6.38053965,16.5932028 C6.49057894,16.481233 6.54531662,16.3262411 6.53,16.17 L6.53,15.92 C6.54531662,15.7637589 6.49057894,15.608767 6.38053965,15.4967972 C6.27050036,15.3848274 6.11648383,15.3274027 5.96,15.34 L4.6,15.34 L4.6,16.75 Z M4.6,19.3 L6.17,19.3 C6.32787231,19.3185342 6.48572784,19.2652315 6.60004802,19.1547865 C6.7143682,19.0443416 6.77308096,18.8884174 6.76,18.73 L6.76,18.43 C6.76946758,18.272546 6.70961615,18.118824 6.59617204,18.0092254 C6.48272794,17.8996269 6.32703407,17.8451102 6.17,17.86 L4.6,17.86 L4.6,19.3 Z" id="Shape" fill="#FFFFFF" fill-rule="nonzero"></path>
            <path d="M4.70999999,65.2201022 C4.57832003,65.2226879 4.4511021,65.1722521 4.35703498,65.0800663 C4.26296787,64.9878806 4.20999999,64.8617074 4.20999999,64.73 L4.20999999,52.16 C4.20999999,51.8838576 4.43385763,51.66 4.70999999,51.66 L13.26,51.66 C13.5339085,51.6653201 13.7546799,51.8860915 13.76,52.16 L13.76,54.59 C13.7546799,54.8639085 13.5339085,55.0846799 13.26,55.09 L7.94,55.09 L7.94,56.67 L12.43,56.67 C12.56168,56.6673121 12.6888979,56.7177479 12.782965,56.8099337 C12.8770321,56.9021194 12.9300274,57.0282926 12.93,57.16 L12.93,59.58 C12.9300274,59.7117074 12.8770321,59.8378806 12.782965,59.9300663 C12.6888979,60.0222521 12.56168,60.0726879 12.43,60.07 L7.94,60.07 L7.94,61.8 L13.26,61.8 C13.5361424,61.8 13.76,62.0238576 13.76,62.3 L13.76,64.73 C13.7545543,65.0022294 13.5322838,65.2201022 13.26,65.2201022 L4.70999999,65.2201022 Z" id="Path" fill="#FFFFFF" fill-rule="nonzero"></path>
            <path d="M13.26,52.16 L13.26,54.59 L7.44,54.59 L7.44,57.16 L12.44,57.16 L12.44,59.58 L7.44,59.58 L7.44,62.3 L13.26,62.3 L13.26,64.73 L4.71,64.73 L4.71,52.16 L13.26,52.16 M13.26,51.16 L4.71,51.16 C4.15771525,51.16 3.71,51.6077153 3.71,52.16 L3.71,64.73 C3.71,65.2822847 4.15771525,65.73 4.71,65.73 L13.26,65.73 C13.8122847,65.73 14.26,65.2822847 14.26,64.73 L14.26,62.3 C14.26,61.7477153 13.8122847,61.3 13.26,61.3 L8.44,61.3 L8.44,60.57 L12.44,60.57 C12.9922847,60.57 13.44,60.1222847 13.44,59.57 L13.44,57.15 C13.44,56.5977153 12.9922847,56.15 12.44,56.15 L8.44,56.15 L8.44,55.56 L13.26,55.56 C13.8122847,55.56 14.26,55.1122847 14.26,54.56 L14.26,52.13 C14.26,51.5777153 13.8122847,51.13 13.26,51.13 L13.26,51.16 Z" id="Shape" fill="#1D1D1B" fill-rule="nonzero"></path>
            <line x1="60.75" y1="58.35" x2="82.01" y2="58.35" id="Path" stroke="#1D1D1B" stroke-width="0.99"></line>
        </g>
    </g>
</svg>
