
<svg viewBox="0 0 85 94" version="1.1" xmlns="http://www.w3.org/2000/svg" xmlns:xlink="http://www.w3.org/1999/xlink">
    <g id="Page-1" stroke="none" stroke-width="1" fill="none" fill-rule="evenodd">
        <g id="f" transform="translate(0.620000, 0.940000)">
            <path d="M0.01,10.55 L17.94,10.55 C20.8560635,10.55 23.22,8.18606348 23.22,5.27 L23.22,5.27 C23.2144845,2.35784253 20.8521627,0 17.94,0 L0.01,0 L0.01,10.55 Z" id="Path" fill="#A4DBF8" fill-rule="nonzero"></path>
            <path d="M7.27,8.42 L6.82,6.92 L4.72,6.92 L4.27,8.42 L2.89,8.42 L4.96,2.13 L6.66,2.13 L8.66,8.42 L7.27,8.42 Z M5.79,3.42 L5.74,3.42 L5.05,5.8 L6.49,5.8 L5.79,3.42 Z" id="Shape" fill="#FFFFFF" fill-rule="nonzero"></path>
            <path d="M0.01,34.63 L34.41,34.63 C37.3166338,34.6189743 39.6655364,32.2566494 39.6600098,29.35 L39.6600098,29.35 C39.6600098,26.4378373 37.3021575,24.0755155 34.39,24.07 L0.01,24.07 L0.01,34.63 Z" id="Path" fill="#7792B1" fill-rule="nonzero"></path>
            <path d="M3.31,29.4 C3.31,27.27 4.4,26.1 6.09,26.1 C7.11471292,26.01822 8.07106173,26.6205162 8.44,27.58 L7.26,28.19 C7.14183439,27.6486098 6.64248823,27.2773011 6.09,27.32 C5.29,27.32 4.76,27.86 4.76,28.85 L4.76,29.85 C4.76,30.85 5.29,31.38 6.09,31.38 C6.67190493,31.3872538 7.1854647,31.0010569 7.34,30.44 L8.46,31.09 C8.06033318,32.0355027 7.11558341,32.6334456 6.09,32.59 C4.4,32.6 3.31,31.52 3.31,29.4 Z" id="Path" fill="#FFFFFF" fill-rule="nonzero"></path>
            <path d="M0.5,80.1 L0.5,60.68 L56.84,60.68 C62.2026849,60.68 66.55,65.0273151 66.55,70.39 C66.55,75.7526849 62.2026849,80.1 56.84,80.1 L0.5,80.1 Z" id="Path" fill="#393551" fill-rule="nonzero"></path>
            <path d="M56.84,61.18 C61.9265424,61.18 66.0499996,65.3034576 66.0499996,70.39 C66.0499996,75.4765424 61.9265424,79.6 56.84,79.6 L0.99,79.6 L0.99,61.18 L56.84,61.18 M56.84,60.18 L0,60.18 L0,80.59 L56.84,80.59 C62.3517377,80.4174419 66.7305082,75.8994382 66.7305082,70.385 C66.7305082,64.8705618 62.3517377,60.3525581 56.84,60.18 Z" id="Shape" fill="#1D1D1B" fill-rule="nonzero"></path>
            <path d="M0.01,46.67 L42.78,46.67 C45.6960635,46.67 48.0600095,44.3060635 48.0600095,41.39 L48.0600095,41.39 C48.0626613,39.9888428 47.5072318,38.6443073 46.5164622,37.6535378 C45.5256927,36.6627682 44.1811572,36.1073387 42.78,36.1099905 L0.01,36.1099905 L0.01,46.67 Z" id="Path" fill="#606F8F" fill-rule="nonzero"></path>
            <path d="M3.35,38.25 L5.72,38.25 C7.38,38.25 8.48,39.25 8.48,41.39 C8.48,43.53 7.38,44.53 5.72,44.53 L3.35,44.53 L3.35,38.25 Z M5.72,43.32 C6.53,43.32 7.03,42.87 7.03,41.88 L7.03,40.88 C7.03,39.88 6.53,39.44 5.72,39.44 L4.72,39.44 L4.72,43.3 L5.72,43.32 Z" id="Shape" fill="#FFFFFF" fill-rule="nonzero"></path>
            <path d="M0.01,58.71 L51.01,58.71 C53.9260635,58.71 56.2900095,56.3460635 56.2900095,53.43 L56.2900095,53.43 C56.2926613,52.0288428 55.7372318,50.6843073 54.7464622,49.6935378 C53.7556927,48.7027682 52.4111572,48.1473387 51.01,48.1499905 L0.01,48.1499905 L0.01,58.71 Z" id="Path" fill="#4D5271" fill-rule="nonzero"></path>
            <polygon id="Path" fill="#FFFFFF" fill-rule="nonzero" points="3.75 56.57 3.75 50.29 8.03 50.29 8.03 51.5 5.12 51.5 5.12 52.79 7.66 52.79 7.66 53.99 5.12 53.99 5.12 55.35 8.03 55.35 8.03 56.57"></polygon>
            <path d="M0.01,92.64 L74.43,92.64 C77.3421575,92.6344845 79.7000095,90.2721627 79.7000095,87.36 L79.7000095,87.36 C79.7026555,85.9605773 79.1485974,84.6175617 78.1599927,83.6270811 C77.1713881,82.6366005 75.8294252,82.08 74.43,82.08 L0.01,82.08 L0.01,92.64 Z" id="Path" fill="#281B35" fill-rule="nonzero"></path>
            <path d="M7.24,89.5 L7.24,89.5 C7.15,90.13 6.58,90.61 5.63,90.61 C4.19,90.61 3.06,89.49 3.06,87.38 C3.06,85.27 4.2,84.11 5.9,84.11 C6.93075955,84.0502492 7.89221456,84.6303006 8.32,85.57 L7.21,86.2 C7.01883746,85.6470456 6.48418367,85.2878889 5.9,85.32 C5.05,85.32 4.51,85.81 4.51,86.85 L4.51,87.85 C4.51,88.9 5.05,89.38 5.9,89.38 C6.58,89.38 7.13,89.06 7.13,88.45 L7.13,88.13 L5.91,88.13 L5.91,86.99 L8.39,86.99 L8.39,90.49 L7.24,90.49 L7.24,89.5 Z" id="Path" fill="#FFFFFF" fill-rule="nonzero"></path>
            <path d="M0.01,22.5900095 L26.31,22.5900095 C27.7111572,22.5926613 29.0556927,22.0372318 30.0464622,21.0464622 C31.0372318,20.0556927 31.5926613,18.7111572 31.5900095,17.31 L31.5900095,17.31 C31.5900095,15.9096569 31.0337159,14.5666683 30.0435238,13.5764762 C29.0533317,12.5862841 27.7103431,12.03 26.31,12.03 L0.01,12.03 L0.01,22.5900095 Z" id="Path" fill="#8CB4D3" fill-rule="nonzero"></path>
            <path d="M3.24,14.17 L6.29,14.17 C6.7329246,14.1281202 7.1719617,14.2823962 7.49132654,14.5921416 C7.81069137,14.901887 7.97831829,15.336002 7.95,15.78 C7.95,16.78 7.42,17.11 6.78,17.13 L6.78,17.19 C7.16732157,17.1807455 7.54069401,17.3347329 7.80888427,17.6143355 C8.07707454,17.8939381 8.21537786,18.2733999 8.19,18.66 C8.21723124,19.1133638 8.06083526,19.558607 7.75606997,19.8953538 C7.45130468,20.2321007 7.02382429,20.4320049 6.57,20.45 L3.24,20.45 L3.24,14.17 Z M4.66,16.75 L6.02,16.75 C6.17648383,16.7625973 6.33050036,16.7051726 6.44053965,16.5932028 C6.55057894,16.481233 6.60531662,16.3262411 6.59,16.17 L6.59,15.92 C6.60531662,15.7637589 6.55057894,15.608767 6.44053965,15.4967972 C6.33050036,15.3848274 6.17648383,15.3274027 6.02,15.34 L4.66,15.34 L4.66,16.75 Z M4.66,19.3 L6.23,19.3 C6.38787231,19.3185342 6.54572784,19.2652315 6.66004802,19.1547865 C6.7743682,19.0443416 6.83308096,18.8884174 6.82,18.73 L6.82,18.43 C6.82946758,18.272546 6.76961615,18.118824 6.65617204,18.0092254 C6.54272794,17.8996269 6.38703407,17.8451102 6.23,17.86 L4.66,17.86 L4.66,19.3 Z" id="Shape" fill="#FFFFFF" fill-rule="nonzero"></path>
            <path d="M4.22,77.17 C3.94771619,77.17 3.72544567,76.9522294 3.72,76.68 L3.72,64.11 C3.72532011,63.8360915 3.94609155,63.6153201 4.22,63.61 L12.56,63.61 C12.8322294,63.6154457 13.05,63.8377162 13.05,64.11 L13.05,66.54 C13.05,66.8122838 12.8322294,67.0345543 12.56,67.04 L7.45,67.04 L7.45,68.62 L11.73,68.62 C12.0022838,68.6199455 12.2245543,68.8377706 12.23,69.11 L12.23,71.53 C12.2245543,71.8022294 12.0022838,72.0200545 11.73,72.02 L7.45,72.02 L7.45,76.68 C7.45,76.8099561 7.39837515,76.9345895 7.30648232,77.0264823 C7.2145895,77.1183751 7.08995608,77.17 6.96,77.17 L4.22,77.17 Z" id="Path" fill="#FFFFFF" fill-rule="nonzero"></path>
            <path d="M12.56,64.11 L12.56,66.54 L6.96,66.54 L6.96,69.11 L11.73,69.11 L11.73,71.53 L6.96,71.53 L6.96,76.68 L4.22,76.68 L4.22,64.11 L12.56,64.11 M12.56,63.11 L4.22,63.11 C3.66771525,63.11 3.22,63.5577153 3.22,64.11 L3.22,76.68 C3.22,77.2322847 3.66771525,77.68 4.22,77.68 L6.96,77.68 C7.51228475,77.68 7.96,77.2322847 7.96,76.68 L7.96,72.52 L11.74,72.52 C12.2922847,72.52 12.74,72.0722847 12.74,71.52 L12.74,69.1 C12.74,68.5477153 12.2922847,68.1 11.74,68.1 L7.95,68.1 L7.95,67.51 L12.56,67.51 C13.1122847,67.51 13.56,67.0622847 13.56,66.51 L13.56,64.08 C13.56,63.5277153 13.1122847,63.08 12.56,63.08 L12.56,63.11 Z" id="Shape" fill="#1D1D1B" fill-rule="nonzero"></path>
            <line x1="68.79" y1="70.39" x2="84.31" y2="70.39" id="Path" stroke="#1D1D1B" stroke-width="0.99"></line>
        </g>
    </g>
</svg>
