
<svg viewBox="0 0 84 94" version="1.1" xmlns="http://www.w3.org/2000/svg" xmlns:xlink="http://www.w3.org/1999/xlink">
    <g id="Page-1" stroke="none" stroke-width="1" fill="none" fill-rule="evenodd">
        <g id="g" transform="translate(0.590000, 0.939990)">
            <path d="M0,10.550019 L17.93,10.550019 C19.3311572,10.5526708 20.6756927,9.9972413 21.6664622,9.00647174 C22.6572318,8.01570219 23.2126613,6.67116672 23.2100095,5.2700095 L23.2100095,5.2700095 C23.2100095,3.87058426 22.6533995,2.52862145 21.6629189,1.54001677 C20.6724383,0.551412093 19.3294227,-0.00264595455 17.93,0 L0,0 L0,10.550019 Z" id="Path" fill="#A4DBF8" fill-rule="nonzero"></path>
            <path d="M7.26,8.4200095 L6.81,6.9200095 L4.69,6.9200095 L4.24,8.4200095 L2.88,8.4200095 L4.95,2.1300095 L6.69,2.1300095 L8.69,8.4200095 L7.26,8.4200095 Z M5.78,3.4200095 L5.69,3.4200095 L5,5.8000095 L6.44,5.8000095 L5.78,3.4200095 Z" id="Shape" fill="#FFFFFF" fill-rule="nonzero"></path>
            <path d="M0,34.630019 L34.4,34.630019 C35.8020749,34.632665 37.147634,34.0775533 38.1399899,33.0870733 C39.1323459,32.0965933 39.69,30.7520869 39.69,29.3500095 L39.69,29.3500095 C39.6844971,26.4362284 37.3237811,24.0755124 34.41,24.0700095 L0,24.0700095 L0,34.630019 Z" id="Path" fill="#7792B1" fill-rule="nonzero"></path>
            <path d="M3.3,29.4000095 C3.3,27.2700095 4.39,26.1000095 6.09,26.1000095 C7.11388216,26.0215951 8.06838526,26.622729 8.44,27.5800095 L7.26,28.1900095 C7.13799464,27.6511081 6.64121022,27.2817043 6.09,27.3200095 C5.28,27.3200095 4.75,27.8600095 4.75,28.8500095 L4.75,29.8500095 C4.75,30.8500095 5.28,31.3800095 6.09,31.3800095 C6.66963204,31.3803841 7.1794866,30.9969735 7.34,30.4400095 L8.45,31.0900095 C8.05394215,32.0339341 7.11278118,32.6321296 6.09,32.5900095 C4.39,32.6000095 3.3,31.5200095 3.3,29.4000095 Z" id="Path" fill="#FFFFFF" fill-rule="nonzero"></path>
            <path d="M0.5,92.1400095 L0.5,72.7200095 L65.12,72.7200095 C70.4826849,72.7200095 74.83,77.0673246 74.83,82.4300095 C74.83,87.7926944 70.4826849,92.1400095 65.12,92.1400095 L0.5,92.1400095 Z" id="Path" fill="#281B35" fill-rule="nonzero"></path>
            <path d="M65.12,73.2200095 C70.2065425,73.2200095 74.33,77.343467 74.33,82.4300095 C74.33,87.516552 70.2065425,91.6400095 65.12,91.6400095 L0.99,91.6400095 L0.99,73.2200095 L65.12,73.2200095 M65.12,72.2200095 L0,72.2200095 L0,92.6300095 L65.12,92.6300095 C68.8420733,92.7465379 72.3323828,90.8273641 74.2278736,87.6219744 C76.1233645,84.4165848 76.1233645,80.4334342 74.2278736,77.2280446 C72.3323828,74.0226549 68.8420733,72.1034811 65.12,72.2200095 Z" id="Shape" fill="#1D1D1B" fill-rule="nonzero"></path>
            <path d="M0,46.6700095 L42.77,46.6700095 C44.1703431,46.6700095 45.5133317,46.1137254 46.5035238,45.1235333 C47.4937159,44.1333412 48.0500095,42.7903526 48.0500095,41.3900095 L48.0500095,41.3900095 C48.0526613,39.9888523 47.4972318,38.6443168 46.5064622,37.6535473 C45.5156927,36.6627777 44.1711572,36.1073482 42.77,36.11 L0,36.11 L0,46.6700095 Z" id="Path" fill="#606F8F" fill-rule="nonzero"></path>
            <path d="M3.34,38.2500095 L5.69,38.2500095 C7.35,38.2500095 8.45,39.2500095 8.45,41.3900095 C8.45,43.5300095 7.35,44.5300095 5.69,44.5300095 L3.34,44.5300095 L3.34,38.2500095 Z M5.69,43.3200095 C6.5,43.3200095 7,42.8700095 7,41.8800095 L7,40.8800095 C7,39.8800095 6.5,39.4400095 5.69,39.4400095 L4.69,39.4400095 L4.69,43.3000095 L5.69,43.3200095 Z" id="Shape" fill="#FFFFFF" fill-rule="nonzero"></path>
            <path d="M0,58.7100095 L51,58.7100095 C53.9121575,58.704494 56.2700095,56.3421722 56.2700095,53.4300095 L56.2700095,53.4300095 C56.2726555,52.0305868 55.7185974,50.6875712 54.7299927,49.6970906 C53.7413881,48.70661 52.3994252,48.1500095 51,48.1500095 L0,48.1500095 L0,58.7100095 Z" id="Path" fill="#4D5271" fill-rule="nonzero"></path>
            <polygon id="Path" fill="#FFFFFF" fill-rule="nonzero" points="3.74 56.5700095 3.74 50.2900095 8.02 50.2900095 8.02 51.5000095 5.11 51.5000095 5.11 52.7900095 7.61 52.7900095 7.61 53.9900095 5.11 53.9900095 5.11 55.3500095 8.02 55.3500095 8.02 56.5700095"></polygon>
            <path d="M0,70.7400095 L59.35,70.7400095 C62.2621627,70.7400095 64.6244845,68.382167 64.63,65.4700095 L64.63,65.4700095 C64.63,62.553946 62.2660635,60.1900095 59.35,60.1900095 L0,60.1900095 L0,70.7400095 Z" id="Path" fill="#393551" fill-rule="nonzero"></path>
            <polygon id="Path" fill="#FFFFFF" fill-rule="nonzero" points="3.84 68.6100095 3.84 62.3200095 8.01 62.3200095 8.01 63.5400095 5.21 63.5400095 5.21 64.8300095 7.6 64.8300095 7.6 66.0300095 5.21 66.0300095 5.21 68.6100095"></polygon>
            <path d="M0,22.590019 L26.3,22.590019 C27.7011572,22.5926708 29.0456927,22.0372413 30.0364622,21.0464717 C31.0272318,20.0557022 31.5826613,18.7111667 31.5800095,17.3100095 L31.5800095,17.3100095 C31.5800095,15.9096664 31.0237159,14.5666778 30.0335238,13.5764857 C29.0433317,12.5862936 27.7003431,12.0300095 26.3,12.0300095 L0,12.0300095 L0,22.590019 Z" id="Path" fill="#8CB4D3" fill-rule="nonzero"></path>
            <path d="M3.23,14.1700095 L6.28,14.1700095 C6.7229246,14.1281297 7.1619617,14.2824057 7.48132654,14.5921511 C7.80069137,14.9018965 7.96831829,15.3360115 7.94,15.7800095 C7.94,16.7800095 7.41,17.1100095 6.77,17.1300095 L6.77,17.1900095 C7.15732157,17.180755 7.53069401,17.3347424 7.79888427,17.614345 C8.06707454,17.8939476 8.20537786,18.2734094 8.18,18.6600095 C8.20723124,19.1133733 8.05083526,19.5586165 7.74606997,19.8953633 C7.44130468,20.2321102 7.01382429,20.4320144 6.56,20.4500095 L3.23,20.4500095 L3.23,14.1700095 Z M4.6,16.7500095 L5.96,16.7500095 C6.11648383,16.7626068 6.27050036,16.7051821 6.38053965,16.5932123 C6.49057894,16.4812425 6.54531662,16.3262506 6.53,16.1700095 L6.53,15.9200095 C6.54531662,15.7637684 6.49057894,15.6087765 6.38053965,15.4968067 C6.27050036,15.3848369 6.11648383,15.3274122 5.96,15.3400095 L4.6,15.3400095 L4.6,16.7500095 Z M4.6,19.3000095 L6.17,19.3000095 C6.32787231,19.3185437 6.48572784,19.265241 6.60004802,19.154796 C6.7143682,19.0443511 6.77308096,18.8884269 6.76,18.7300095 L6.76,18.4300095 C6.76946758,18.2725555 6.70961615,18.1188335 6.59617204,18.0092349 C6.48272794,17.8996364 6.32703407,17.8451197 6.17,17.8600095 L4.6,17.8600095 L4.6,19.3000095 Z" id="Shape" fill="#FFFFFF" fill-rule="nonzero"></path>
            <path d="M8.89,89.4300095 C5.46,89.4300095 3.25,86.7000095 3.25,82.4900095 C3.25,78.2800095 5.62,75.4300095 9.43,75.4300095 C11.6827239,75.3108687 13.7797836,76.5794114 14.72,78.6300095 C14.839016,78.865202 14.7506458,79.1524052 14.52,79.2800095 L12.29,80.5600095 C12.2162888,80.5997971 12.1337629,80.6204286 12.05,80.6200095 C11.9938044,80.6303429 11.9361956,80.6303429 11.88,80.6200095 C11.7438513,80.5750618 11.6342194,80.4727386 11.58,80.3400095 C11.2830022,79.4190522 10.3951455,78.8202651 9.43,78.8900095 C7.91,78.8900095 7.14,79.7500095 7.14,81.4500095 L7.14,83.4500095 C7.14,85.1500095 7.91,86.0100095 9.43,86.0100095 C10.43,86.0100095 11.43,85.6500095 11.43,84.6400095 L11.43,84.5000095 L9.56,84.5000095 C9.28771619,84.500064 9.06544567,84.2822389 9.06,84.0100095 L9.06,81.7200095 C9.06544567,81.4477802 9.28771619,81.229955 9.56,81.2300095 L14.56,81.2300095 C14.69168,81.2273216 14.8188979,81.2777574 14.912965,81.3699432 C15.0070321,81.4621289 15.06,81.5883021 15.06,81.7200095 L15.06,88.7200095 C15.06,88.8517169 15.0070321,88.9778901 14.912965,89.0700758 C14.8188979,89.1622616 14.69168,89.2126974 14.56,89.2100095 L12.26,89.2100095 C12.12832,89.2126974 12.0011021,89.1622616 11.907035,89.0700758 C11.8129679,88.9778901 11.7599726,88.8517169 11.76,88.7200095 L11.76,88.4800095 C10.9577797,89.1480173 9.93234972,89.4874453 8.89,89.4300095 Z" id="Path" fill="#FFFFFF" fill-rule="nonzero"></path>
            <path d="M9.43,75.9200095 C11.4950701,75.7962589 13.4230943,76.9570487 14.28,78.8400095 L12.05,80.1200095 C11.6740764,79.0079569 10.6019989,78.2836908 9.43,78.3500095 C7.74,78.3500095 6.64,79.3500095 6.64,81.4100095 L6.64,83.4100095 C6.64,85.5000095 7.74,86.4700095 9.43,86.4700095 C10.8,86.4700095 11.9,85.8200095 11.9,84.6000095 L11.9,83.9700095 L9.56,83.9700095 L9.56,81.6800095 L14.56,81.6800095 L14.56,88.6800095 L12.26,88.6800095 L12.26,86.6800095 L12.17,86.6800095 C11.99,87.9400095 10.83,88.8900095 8.94,88.8900095 C6.06,88.8900095 3.79,86.6600095 3.79,82.4500095 C3.79,78.2400095 6.03,75.9200095 9.43,75.9200095 M9.43,74.9200095 C5.31,74.9200095 2.75,77.8100095 2.75,82.4700095 C2.75,86.1700095 4.65,89.9000095 8.89,89.9000095 C9.7687726,89.919453 10.6374022,89.7091895 11.41,89.2900095 C11.5988544,89.5418153 11.8952427,89.6900095 12.21,89.6900095 L14.51,89.6900095 C15.0622847,89.6900095 15.51,89.2422943 15.51,88.6900095 L15.51,81.6900095 C15.51,81.1377248 15.0622847,80.6900095 14.51,80.6900095 L13.01,80.6900095 L14.77,79.6900095 C15.2228776,79.4280356 15.3972702,78.8612597 15.17,78.3900095 C14.1316372,76.1815236 11.8680698,74.81313 9.43,74.9200095 Z M9.43,85.4900095 C8.6,85.4900095 7.64,85.2500095 7.64,83.4200095 L7.64,81.4200095 C7.64,79.5900095 8.64,79.3500095 9.43,79.3500095 C10.1928057,79.2795594 10.8996162,79.7563428 11.12,80.4900095 C11.1529705,80.5720882 11.1966853,80.6494297 11.25,80.7200095 L9.56,80.7200095 C9.00771525,80.7200095 8.56,81.1677248 8.56,81.7200095 L8.56,84.0100095 C8.56,84.5622943 9.00771525,85.0100095 9.56,85.0100095 L10.81,85.0100095 C10.52,85.5000095 9.64,85.5300095 9.43,85.5300095 L9.43,85.4900095 Z" id="Shape" fill="#1D1D1B" fill-rule="nonzero"></path>
            <line x1="77.24" y1="82.4300095" x2="83.35" y2="82.4300095" id="Path" stroke="#1D1D1B" stroke-width="0.99"></line>
        </g>
    </g>
</svg>
