<svg viewBox="0 0 279 206" version="1.1" xmlns="http://www.w3.org/2000/svg" xmlns:xlink="http://www.w3.org/1999/xlink">
    <g id="Page-1" stroke="none" stroke-width="1" fill="none" fill-rule="evenodd">
        <g id="a" transform="translate(0.000104, 0.340000)">
            <polygon id="Path" fill="#D7221F" fill-rule="nonzero" points="270.46 205.48 98.67 205.48 98.67 182.01 270.46 182.01 278.51 193.74"></polygon>
            <path d="M114.38,198.55 L114.28,198.55 C114.08,199.95 112.8,201.01 110.7,201.01 C107.5,201.01 104.98,198.53 104.98,193.85 C104.98,189.17 107.52,186.57 111.3,186.57 C113.587873,186.445341 115.72016,187.729469 116.68,189.81 L114.2,191.23 C113.79833,189.983129 112.608225,189.162366 111.3,189.23 C109.42,189.23 108.2,190.31 108.2,192.63 L108.2,194.87 C108.2,197.19 109.42,198.27 111.3,198.27 C112.82,198.27 114.04,197.55 114.04,196.19 L114.04,195.49 L111.44,195.49 L111.44,192.95 L116.94,192.95 L116.94,200.82 L114.38,200.82 L114.38,198.55 Z" id="Path" fill="#FFFFFF" fill-rule="nonzero"></path>
            <polygon id="Path" fill="#00A06D" fill-rule="nonzero" points="99.38 44.68 99.38 0.75 144.5 0.75 159.47 22.72 144.5 44.68"></polygon>
            <path d="M144.13,1.46 L158.62,22.71 L144.13,43.97 L100.13,43.97 L100.13,1.46 L144.13,1.46 M144.88,0.04 L98.67,0.04 L98.67,45.39 L144.88,45.39 L160.33,22.71 L144.88,0.04 Z" id="Shape" fill="#1D1D1B" fill-rule="nonzero"></path>
            <polygon id="Path" fill="#52B153" fill-rule="nonzero" points="179.63 72.07 98.67 72.07 98.67 48.6 179.63 48.6 187.57 60.34"></polygon>
            <path d="M106.04,53.63 L112.82,53.63 C113.803037,53.5404071 114.776115,53.8850245 115.483655,54.5733377 C116.191195,55.2616509 116.562483,56.2248687 116.5,57.21 C116.5,59.35 115.32,60.15 113.9,60.21 L113.9,60.33 C114.762174,60.3144063 115.591644,60.6597922 116.187955,61.2826899 C116.784265,61.9055875 117.093164,62.749325 117.04,63.61 C117.105489,64.6208838 116.760315,65.6154273 116.082652,66.3683864 C115.404988,67.1213456 114.452173,67.5690126 113.44,67.61 L106.04,67.61 L106.04,53.63 Z M109.04,59.35 L112.04,59.35 C112.388057,59.3809899 112.731949,59.2561226 112.979036,59.0090356 C113.226123,58.7619487 113.35099,58.4180568 113.32,58.07 L113.32,57.47 C113.35099,57.1219432 113.226123,56.7780513 112.979036,56.5309644 C112.731949,56.2838774 112.388057,56.1590101 112.04,56.19 L109.04,56.19 L109.04,59.35 Z M109.04,65.03 L112.54,65.03 C112.887585,65.0664809 113.233459,64.9470043 113.484419,64.7037659 C113.735379,64.4605275 113.865604,64.1185548 113.84,63.77 L113.84,63.09 C113.865604,62.7414452 113.735379,62.3994725 113.484419,62.1562341 C113.233459,61.9129957 112.887585,61.7935191 112.54,61.83 L109.04,61.83 L109.04,65.03 Z" id="Shape" fill="#FFFFFF" fill-rule="nonzero"></path>
            <polygon id="Path" fill="#A5CC74" fill-rule="nonzero" points="197.74 98.75 98.67 98.75 98.67 75.28 197.74 75.28 205.69 87.02"></polygon>
            <path d="M105.66,86.91 C105.66,82.19 108.08,79.59 111.84,79.59 C114.112859,79.4128503 116.233483,80.7453496 117.06,82.87 L114.44,84.23 C114.178956,83.0250757 113.069377,82.1971587 111.84,82.29 C110.06,82.29 108.84,83.49 108.84,85.69 L108.84,87.93 C108.84,90.13 110.02,91.33 111.84,91.33 C113.128529,91.3393603 114.265343,90.4887946 114.62,89.25 L117.1,90.69 C116.216374,92.7926833 114.118843,94.1245757 111.84,94.03 C108.08,94.03 105.66,91.63 105.66,86.91 Z" id="Path" fill="#FFFFFF" fill-rule="nonzero"></path>
            <polygon id="Path" fill="#F4E70F" fill-rule="nonzero" points="215.88 125.43 98.67 125.43 98.67 101.96 215.88 101.96 223.82 113.7"></polygon>
            <path d="M105.74,106.52 L111,106.52 C114.7,106.52 117.14,108.86 117.14,113.52 C117.14,118.18 114.7,120.52 111,120.52 L105.74,120.52 L105.74,106.52 Z M111,117.82 C112.8,117.82 113.92,116.82 113.92,114.62 L113.92,112.42 C113.92,110.2 112.8,109.22 111,109.22 L108.78,109.22 L108.78,117.82 L111,117.82 Z" id="Shape" fill="#FFFFFF" fill-rule="nonzero"></path>
            <polygon id="Path" fill="#F0B40F" fill-rule="nonzero" points="233.88 152.11 98.67 152.11 98.67 128.64 233.88 128.64 241.82 140.38"></polygon>
            <polygon id="Path" fill="#FFFFFF" fill-rule="nonzero" points="106.64 147.34 106.64 133.34 116.14 133.34 116.14 136.04 109.68 136.04 109.68 138.9 115.22 138.9 115.22 141.58 109.68 141.58 109.68 144.58 116.14 144.58 116.14 147.28"></polygon>
            <polygon id="Path" fill="#EB8235" fill-rule="nonzero" points="252.14 178.8 98.67 178.8 98.67 155.32 252.14 155.32 260.08 167.06"></polygon>
            <polygon id="Path" fill="#FFFFFF" fill-rule="nonzero" points="106.86 173.76 106.86 159.82 116.12 159.82 116.12 162.52 109.94 162.52 109.94 165.38 115.24 165.38 115.24 168.06 109.94 168.06 109.94 173.78"></polygon>
            <line x1="94.01" y1="155.32" x2="94.01" y2="205.48" id="Path" stroke="#9D9D9C" stroke-width="1.5"></line>
            <line x1="53.07" y1="3.94" x2="53.07" y2="41.49" id="Path" stroke="#1D1D1B" stroke-width="1.42"></line>
            <path d="M98.66,1.46 L98.66,43.97 L3.82,43.97 C2.4945166,43.97 1.41997896,42.8954834 1.41997896,41.57 L1.41997896,3.82 C1.4173277,3.18266496 1.66932589,2.57066168 2.11999378,2.11999378 C2.57066168,1.66932589 3.18266496,1.4173277 3.82,1.41997896 L98.66,1.41997896 M100.08,7.10542736e-15 L3.82,7.10542736e-15 C1.71027226,7.10542736e-15 -7.10542736e-15,1.71027226 -7.10542736e-15,3.82 L-7.10542736e-15,41.57 C-7.10542736e-15,43.6797277 1.71027226,45.39 3.82,45.39 L100.08,45.39 L100.08,0.04 L100.08,7.10542736e-15 Z" id="Shape" fill="#1D1D1B" fill-rule="nonzero"></path>
            <path d="M126.94,38.1800605 C126.627043,38.1840964 126.349397,37.9799454 126.26,37.68 L124.26,31.21 L115.53,31.21 L113.53,37.68 C113.437754,37.9779292 113.161882,38.1807759 112.85,38.1800605 L106.38,38.1800605 C106.151986,38.1792198 105.937433,38.0719432 105.8,37.89 C105.667418,37.7041118 105.633827,37.4652443 105.71,37.25 L115.37,7.93 C115.464655,7.63953154 115.734506,7.44217786 116.04,7.44 L123.94,7.44 C124.245494,7.44217786 124.515345,7.63953154 124.61,7.93 L134.15,37.25 C134.220734,37.4670251 134.182813,37.7048236 134.048085,37.8890835 C133.913357,38.0733435 133.698256,38.1815914 133.47,38.1800605 L126.94,38.1800605 Z M122.33,24.37 L119.94,16.11 L117.54,24.37 L122.33,24.37 Z" id="Shape" fill="#FFFFFF" fill-rule="nonzero"></path>
            <path d="M124.08,8.15 L133.61,37.47 L126.94,37.47 L124.84,30.47 L115.05,30.47 L112.95,37.47 L106.48,37.47 L116.14,8.15 L124.04,8.15 M116.56,25.08 L123.28,25.08 L120.01,13.95 L119.79,13.95 L116.56,25.08 M124.04,6.73 L116.14,6.73 C115.522031,6.73909066 114.978777,7.14150096 114.79,7.73 L105.13,37.05 C104.989091,37.4823695 105.063786,37.9560711 105.330905,38.3241013 C105.598024,38.6921316 106.025249,38.910251 106.48,38.910251 L112.95,38.910251 C113.571141,38.910251 114.119385,38.5043012 114.3,37.91 L116.1,31.91 L123.78,31.91 L125.58,37.91 C125.764492,38.5058584 126.316235,38.9115518 126.94,38.910251 L133.57,38.910251 C134.033161,38.9186963 134.471449,38.7009252 134.74427,38.3265426 C135.017092,37.9521599 135.090146,37.4682352 134.94,37.03 L125.41,7.71 C125.223884,7.11959901 124.679013,6.71599097 124.06,6.71 L124.04,6.73 Z M118.45,23.66 L119.91,18.66 L121.39,23.66 L118.45,23.66 Z" id="Shape" fill="#1D1D1B" fill-rule="nonzero"></path>
        </g>
    </g>
</svg>
