<svg viewBox="0 0 279 206" version="1.1" xmlns="http://www.w3.org/2000/svg" xmlns:xlink="http://www.w3.org/1999/xlink">
    <g id="Page-1" stroke="none" stroke-width="1" fill="none" fill-rule="evenodd">
        <g id="b" transform="translate(0.000104, 0.380000)">
            <polygon id="Path" fill="#D7221F" fill-rule="nonzero" points="270.46 205.44 98.67 205.44 98.67 181.97 270.46 181.97 278.51 193.7"></polygon>
            <path d="M114.38,198.51 L114.28,198.51 C114.08,199.91 112.8,200.97 110.7,200.97 C107.5,200.97 104.98,198.49 104.98,193.81 C104.98,189.13 107.52,186.53 111.3,186.53 C113.587873,186.405341 115.72016,187.689469 116.68,189.77 L114.2,191.19 C113.79833,189.943129 112.608225,189.122366 111.3,189.19 C109.42,189.19 108.2,190.27 108.2,192.59 L108.2,194.83 C108.2,197.15 109.42,198.23 111.3,198.23 C112.82,198.23 114.04,197.51 114.04,196.15 L114.04,195.45 L111.44,195.45 L111.44,192.91 L116.94,192.91 L116.94,200.78 L114.38,200.78 L114.38,198.51 Z" id="Path" fill="#FFFFFF" fill-rule="nonzero"></path>
            <polygon id="Path" fill="#00A06D" fill-rule="nonzero" points="144.66 23.47 98.67 23.47 98.67 0 144.66 0 152.61 11.73"></polygon>
            <path d="M114.46,18.99 L113.46,15.67 L108.8,15.67 L107.8,18.99 L104.72,18.99 L109.32,4.99 L113.08,4.99 L117.62,18.99 L114.46,18.99 Z M111.16,7.78 L111.06,7.78 L109.52,13.08 L112.72,13.08 L111.16,7.78 Z" id="Shape" fill="#FFFFFF" fill-rule="nonzero"></path>
            <polygon id="Path" fill="#52B153" fill-rule="nonzero" points="99.38 71.32 99.38 27.39 163.55 27.39 178.52 49.36 163.55 71.32"></polygon>
            <path d="M163.18,28.1 L177.66,49.36 L163.18,70.61 L100.09,70.61 L100.09,28.1 L163.18,28.1 M163.94,26.68 L98.67,26.68 L98.67,72.03 L163.94,72.03 L179.39,49.36 L163.94,26.68 Z" id="Shape" fill="#1D1D1B" fill-rule="nonzero"></path>
            <polygon id="Path" fill="#A5CC74" fill-rule="nonzero" points="197.74 98.71 98.67 98.71 98.67 75.24 197.74 75.24 205.69 86.98"></polygon>
            <path d="M105.66,86.87 C105.66,82.15 108.08,79.55 111.84,79.55 C114.112859,79.3728503 116.233483,80.7053496 117.06,82.83 L114.44,84.19 C114.178956,82.9850757 113.069377,82.1571587 111.84,82.25 C110.06,82.25 108.84,83.45 108.84,85.65 L108.84,87.89 C108.84,90.09 110.02,91.29 111.84,91.29 C113.128529,91.2993603 114.265343,90.4487946 114.62,89.21 L117.1,90.65 C116.216374,92.7526833 114.118843,94.0845757 111.84,93.99 C108.08,93.99 105.66,91.59 105.66,86.87 Z" id="Path" fill="#FFFFFF" fill-rule="nonzero"></path>
            <polygon id="Path" fill="#F4E70F" fill-rule="nonzero" points="215.88 125.39 98.67 125.39 98.67 101.92 215.88 101.92 223.82 113.66"></polygon>
            <path d="M105.74,106.48 L111,106.48 C114.7,106.48 117.14,108.82 117.14,113.48 C117.14,118.14 114.7,120.48 111,120.48 L105.74,120.48 L105.74,106.48 Z M111,117.78 C112.8,117.78 113.92,116.78 113.92,114.58 L113.92,112.38 C113.92,110.16 112.8,109.18 111,109.18 L108.78,109.18 L108.78,117.78 L111,117.78 Z" id="Shape" fill="#FFFFFF" fill-rule="nonzero"></path>
            <polygon id="Path" fill="#F0B40F" fill-rule="nonzero" points="233.88 152.07 98.67 152.07 98.67 128.6 233.88 128.6 241.82 140.34"></polygon>
            <polygon id="Path" fill="#FFFFFF" fill-rule="nonzero" points="106.64 147.3 106.64 133.3 116.14 133.3 116.14 136 109.68 136 109.68 138.86 115.22 138.86 115.22 141.54 109.68 141.54 109.68 144.54 116.14 144.54 116.14 147.24"></polygon>
            <polygon id="Path" fill="#EB8235" fill-rule="nonzero" points="252.14 178.76 98.67 178.76 98.67 155.28 252.14 155.28 260.08 167.02"></polygon>
            <polygon id="Path" fill="#FFFFFF" fill-rule="nonzero" points="106.86 173.72 106.86 159.78 116.12 159.78 116.12 162.48 109.94 162.48 109.94 165.34 115.24 165.34 115.24 168.02 109.94 168.02 109.94 173.74"></polygon>
            <line x1="94.01" y1="155.28" x2="94.01" y2="205.44" id="Path" stroke="#9D9D9C" stroke-width="1.5"></line>
            <line x1="53.07" y1="30.58" x2="53.07" y2="68.13" id="Path" stroke="#1D1D1B" stroke-width="1.42"></line>
            <path d="M98.66,28.1 L98.66,70.610021 L3.82,70.610021 C3.18266496,70.6126723 2.57066168,70.3606741 2.11999378,69.9100062 C1.66932589,69.4593383 1.4173277,68.847335 1.41997896,68.21 L1.41997896,30.5 C1.41997896,29.1745166 2.4945166,28.1 3.82,28.1 L98.66,28.1 M100.08,26.68 L3.82,26.68 C1.71027226,26.68 -7.10542736e-15,28.3902723 -7.10542736e-15,30.5 L-7.10542736e-15,68.21 C-7.10542736e-15,70.3197277 1.71027226,72.03 3.82,72.03 L100.08,72.03 L100.08,26.68 Z" id="Shape" fill="#1D1D1B" fill-rule="nonzero"></path>
            <path d="M106.73,64.86 C106.337878,64.86 106.02,64.5421222 106.02,64.15 L106.02,34.83 C106.02,34.4378778 106.337878,34.12 106.73,34.12 L120.94,34.12 C126.06,34.12 129.37,37.35 129.37,42.35 C129.37,45.5 128.16,47.72 125.97,48.74 C128.86369,49.8413074 130.712006,52.6886036 130.54,55.78 C130.54,60.87 126.91,64.85 122.27,64.85 L106.73,64.86 Z M120.46,58.06 C120.99615,58.129131 121.534663,57.9508659 121.923663,57.5754803 C122.312664,57.2000947 122.509994,56.6682717 122.46,56.13 L122.46,54.7 C122.513261,54.1600772 122.31737,53.625341 121.927937,53.2475909 C121.538504,52.8698407 120.998051,52.6903235 120.46,52.76 L113.82,52.76 L113.82,58.06 L120.46,58.06 Z M119.46,46.13 C120.010616,46.2077157 120.565747,46.0221539 120.95895,45.6289503 C121.352154,45.2357466 121.537716,44.6806165 121.46,44.13 L121.46,42.89 C121.537716,42.3393835 121.352154,41.7842534 120.95895,41.3910497 C120.565747,40.9978461 120.010616,40.8122843 119.46,40.89 L113.83,40.89 L113.83,46.11 L119.46,46.13 Z" id="Shape" fill="#FFFFFF" fill-rule="nonzero"></path>
            <path d="M120.94,34.83 C125.77,34.83 128.67,37.83 128.67,42.35 C128.67,46.87 126.19,48.52 123.2,48.65 L123.2,48.9 C125.012801,48.8627653 126.758281,49.5867456 128.012543,50.8961195 C129.266806,52.2054933 129.915105,53.980474 129.8,55.79 C129.8,60.41 126.56,64.15 122.24,64.15 L106.73,64.15 L106.73,34.83 L120.94,34.83 M113.08,46.83 L119.42,46.83 C120.151449,46.8950705 120.874125,46.6326355 121.39338,46.1133804 C121.912635,45.5941253 122.17507,44.8714489 122.11,44.14 L122.11,42.89 C122.175558,42.1592992 121.912904,41.437268 121.39318,40.9194761 C120.873456,40.4016842 120.150452,40.1417209 119.42,40.21 L113.08,40.21 L113.08,46.84 M113.08,58.77 L120.43,58.77 C121.159483,58.8492891 121.886456,58.6001316 122.413938,58.0900385 C122.941421,57.5799454 123.214799,56.8617308 123.16,56.13 L123.16,54.7 C123.214293,53.9675573 122.941143,53.2487229 122.414143,52.7371658 C121.887143,52.2256086 121.160505,51.973953 120.43,52.05 L113.08,52.05 L113.08,58.78 M120.94,33.41 L106.73,33.41 C105.945756,33.41 105.31,34.0457557 105.31,34.83 L105.31,64.15 C105.31,64.9342443 105.945756,65.57 106.73,65.57 L122.27,65.57 C127.27,65.57 131.27,61.27 131.27,55.79 C131.394632,52.9038905 129.953622,50.1747629 127.5,48.65 C129.2,47.34 130.13,45.17 130.13,42.35 C130.13,36.92 126.54,33.41 120.99,33.41 L120.94,33.41 Z M114.5,41.62 L119.42,41.62 C120.33,41.62 120.7,41.99 120.7,42.89 L120.7,44.15 C120.7,45.05 120.31,45.43 119.42,45.43 L114.5,45.43 L114.5,41.62 L114.5,41.62 Z M114.5,53.47 L120.43,53.47 C121.59,53.47 121.74,54.06 121.74,54.7 L121.74,56.13 C121.74,56.76 121.59,57.36 120.43,57.36 L114.5,57.36 L114.5,53.47 Z" id="Shape" fill="#1D1D1B" fill-rule="nonzero"></path>
        </g>
    </g>
</svg>
