<svg viewBox="0 0 279 206" version="1.1" xmlns="http://www.w3.org/2000/svg" xmlns:xlink="http://www.w3.org/1999/xlink">
    <g id="Page-1" stroke="none" stroke-width="1" fill="none" fill-rule="evenodd">
        <g id="c" transform="translate(0.000104, 0.380000)">
            <polygon id="Path" fill="#D7221F" fill-rule="nonzero" points="270.45 205.44 98.66 205.44 98.66 181.97 270.45 181.97 278.5 193.71"></polygon>
            <path d="M114.38,198.51 L114.28,198.51 C114.08,199.91 112.8,200.97 110.7,200.97 C107.49,200.97 104.97,198.49 104.97,193.81 C104.97,189.13 107.51,186.53 111.3,186.53 C113.587873,186.405341 115.72016,187.689469 116.68,189.77 L114.2,191.19 C113.79833,189.943129 112.608225,189.122366 111.3,189.19 C109.42,189.19 108.19,190.27 108.19,192.59 L108.19,194.83 C108.19,197.15 109.42,198.23 111.3,198.23 C112.82,198.23 114.04,197.51 114.04,196.15 L114.04,195.45 L111.43,195.45 L111.43,192.91 L116.94,192.91 L116.94,200.78 L114.38,200.78 L114.38,198.51 Z" id="Path" fill="#FFFFFF" fill-rule="nonzero"></path>
            <polygon id="Path" fill="#00A06D" fill-rule="nonzero" points="144.66 23.48 98.66 23.48 98.66 0 144.66 0 152.6 11.74"></polygon>
            <path d="M114.46,19 L113.46,15.67 L108.79,15.67 L107.79,19 L104.71,19 L109.31,5 L113.08,5 L117.62,19 L114.46,19 Z M111.15,7.78 L111.05,7.78 L109.52,13.08 L112.72,13.08 L111.15,7.78 Z" id="Shape" fill="#FFFFFF" fill-rule="nonzero"></path>
            <polygon id="Path" fill="#A5CC74" fill-rule="nonzero" points="99.37 98.01 99.37 54.07 181.03 54.07 196 76.04 181.03 98.01"></polygon>
            <path d="M180.65,54.78 L195.14,76.04 L180.65,97.3 L100.08,97.3 L100.08,54.78 L180.65,54.78 M181.4,53.37 L98.66,53.37 L98.66,98.72 L181.4,98.72 L196.85,76.04 L181.4,53.37 L181.4,53.37 Z" id="Shape" fill="#1D1D1B" fill-rule="nonzero"></path>
            <polygon id="Path" fill="#52B153" fill-rule="nonzero" points="163.05 50.16 98.66 50.16 98.66 26.68 163.05 26.68 170.99 38.42"></polygon>
            <path d="M106.03,31.71 L112.81,31.71 C113.794684,31.6172886 114.77057,31.960516 115.480426,32.6492114 C116.190283,33.3379067 116.562878,34.3029622 116.5,35.29 C116.5,37.43 115.32,38.23 113.89,38.29 L113.89,38.41 C114.753896,38.3915743 115.58604,38.7357186 116.18457,39.3589498 C116.7831,39.9821809 117.093328,40.8275551 117.04,41.69 C117.105491,42.702551 116.75897,43.69859 116.079154,44.4518488 C115.399338,45.2051076 114.443941,45.651637 113.43,45.69 L106.03,45.69 L106.03,31.71 Z M109.03,37.43 L112.03,37.43 C112.378057,37.4609899 112.721949,37.3361226 112.969036,37.0890356 C113.216123,36.8419487 113.34099,36.4980568 113.31,36.15 L113.31,35.55 C113.34099,35.2019432 113.216123,34.8580513 112.969036,34.6109644 C112.721949,34.3638774 112.378057,34.2390101 112.03,34.27 L109.03,34.27 L109.03,37.43 Z M109.03,43.11 L112.53,43.11 C112.879213,43.149689 113.227942,43.0316457 113.48125,42.7880062 C113.734558,42.5443666 113.866076,42.2004926 113.84,41.85 L113.84,41.17 C113.866076,40.8195074 113.734558,40.4756334 113.48125,40.2319938 C113.227942,39.9883543 112.879213,39.870311 112.53,39.91 L109.03,39.91 L109.03,43.11 Z" id="Shape" fill="#FFFFFF" fill-rule="nonzero"></path>
            <polygon id="Path" fill="#F4E70F" fill-rule="nonzero" points="215.87 125.4 98.66 125.4 98.66 101.93 215.87 101.93 223.82 113.66"></polygon>
            <path d="M105.73,106.48 L111,106.48 C114.7,106.48 117.14,108.82 117.14,113.48 C117.14,118.14 114.7,120.48 111,120.48 L105.73,120.48 L105.73,106.48 Z M111,117.78 C112.8,117.78 113.92,116.78 113.92,114.58 L113.92,112.42 C113.92,110.19 112.8,109.21 111,109.21 L108.77,109.21 L108.77,117.78 L111,117.78 Z" id="Shape" fill="#FFFFFF" fill-rule="nonzero"></path>
            <polygon id="Path" fill="#F0B40F" fill-rule="nonzero" points="233.87 152.08 98.66 152.08 98.66 128.61 233.87 128.61 241.82 140.34"></polygon>
            <polygon id="Path" fill="#FFFFFF" fill-rule="nonzero" points="106.63 147.3 106.63 133.3 116.14 133.3 116.14 136 109.68 136 109.68 138.86 115.22 138.86 115.22 141.54 109.68 141.54 109.68 144.54 116.14 144.54 116.14 147.24"></polygon>
            <polygon id="Path" fill="#EB8235" fill-rule="nonzero" points="252.13 178.76 98.66 178.76 98.66 155.29 252.13 155.29 260.08 167.02"></polygon>
            <polygon id="Path" fill="#FFFFFF" fill-rule="nonzero" points="106.85 173.78 106.85 159.78 116.12 159.78 116.12 162.48 109.94 162.48 109.94 165.34 115.25 165.34 115.25 168.02 109.94 168.02 109.94 173.78"></polygon>
            <line x1="94.01" y1="155.28" x2="94.01" y2="205.44" id="Path" stroke="#9D9D9C" stroke-width="1.5"></line>
            <line x1="53.07" y1="57.26" x2="53.07" y2="94.82" id="Path" stroke="#1D1D1B" stroke-width="1.42"></line>
            <path d="M98.66,54.78 L98.66,97.3 L3.82,97.3 C2.4945166,97.3 1.41997914,96.2254834 1.41997914,94.9 L1.41997914,57.19 C1.4173406,56.5517496 1.66902251,55.938728 2.11939838,55.4864756 C2.56977426,55.0342231 3.18174402,54.78 3.82,54.78 L98.66,54.78 M100.08,53.37 L3.82,53.37 C1.71027226,53.37 -7.10542736e-15,55.0802723 -7.10542736e-15,57.19 L-7.10542736e-15,94.9 C-7.10542736e-15,97.0097277 1.71027226,98.72 3.82,98.72 L100.08,98.72 L100.08,53.37 Z" id="Shape" fill="#1D1D1B" fill-rule="nonzero"></path>
            <path d="M119.68,91.78 C110.98,91.78 105.99,86.07 105.99,76.12 C105.99,66.17 111.11,60.03 119.68,60.03 C125.33,60.03 129.02,62.35 131.29,67.34 C131.438435,67.6832346 131.299397,68.082968 130.97,68.26 L125.47,71.12 C125.366743,71.16809 125.253888,71.1920288 125.14,71.19 C125.051093,71.2098347 124.958907,71.2098347 124.87,71.19 C124.674897,71.1113173 124.524732,70.9501649 124.46,70.75 C124.014481,68.5112242 121.953701,66.9677947 119.68,67.17 C116.18,67.17 114.17,69.51 114.17,73.6 L114.17,78.31 C114.17,82.4 116.17,84.74 119.68,84.74 C122.087753,84.7512793 124.205247,83.149848 124.85,80.83 C124.927459,80.6354703 125.083702,80.4828606 125.28,80.41 C125.478981,80.3398597 125.698849,80.3618465 125.88,80.47 L131.08,83.47 C131.40819,83.6543023 131.531883,84.0651381 131.36,84.4 C128.94,89.32 125.02,91.78 119.68,91.78 Z" id="Path" fill="#FFFFFF" fill-rule="nonzero"></path>
            <path d="M119.68,60.78 C125.06,60.78 128.5,62.96 130.68,67.67 L125.18,70.53 C124.62931,68.0005072 122.301858,66.2613121 119.72,66.45 C115.98,66.45 113.5,68.97 113.5,73.59 L113.5,78.3 C113.5,82.92 115.98,85.44 119.72,85.44 C122.87,85.44 124.72,83.44 125.56,81.07 L130.77,84.07 C128.58,88.53 125.1,91.07 119.77,91.07 C111.87,91.07 106.77,86.07 106.77,76.07 C106.77,66.07 111.78,60.78 119.68,60.78 M119.68,59.36 C110.8,59.36 105.28,65.8 105.28,76.16 C105.28,86.52 110.66,92.53 119.68,92.53 C125.31,92.53 129.46,89.9 132,84.72 C132.326596,84.0518353 132.082326,83.2448693 131.44,82.87 L126.23,79.87 C126.013074,79.7479738 125.768878,79.6826254 125.52,79.68 C125.355795,79.6798834 125.193009,79.7104056 125.04,79.77 C124.646154,79.9101506 124.334802,80.2178396 124.19,80.61 C123.35,82.89 121.83,84.05 119.68,84.05 C116.58,84.05 114.88,82.05 114.88,78.33 L114.88,73.59 C114.88,69.9 116.58,67.87 119.68,67.87 C121.640103,67.6802214 123.421852,69.0154497 123.79,70.95 C123.912631,71.3476499 124.205802,71.6701384 124.59,71.83 C124.76361,71.9047676 124.950987,71.942243 125.14,71.94 C125.366764,71.9429559 125.590518,71.8878781 125.79,71.78 L131.3,68.93 C131.976394,68.58602 132.259241,67.7684161 131.94,67.08 C129.58,61.89 125.57,59.36 119.69,59.36 L119.68,59.36 Z" id="Shape" fill="#1D1D1B" fill-rule="nonzero"></path>
        </g>
    </g>
</svg>
