<svg viewBox="0 0 279 206" version="1.1" xmlns="http://www.w3.org/2000/svg" xmlns:xlink="http://www.w3.org/1999/xlink">
    <g id="Page-1" stroke="none" stroke-width="1" fill="none" fill-rule="evenodd">
        <g id="d" transform="translate(0.000104, 0.370000)">
            <polygon id="Path" fill="#D7221F" fill-rule="nonzero" points="270.47 205.44 98.68 205.44 98.68 181.97 270.47 181.97 278.52 193.71"></polygon>
            <path d="M114.39,198.51 L114.29,198.51 C114.09,199.91 112.81,200.97 110.71,200.97 C107.51,200.97 104.99,198.49 104.99,193.81 C104.99,189.13 107.53,186.53 111.31,186.53 C113.597873,186.405341 115.73016,187.689469 116.69,189.77 L114.21,191.19 C113.80833,189.943129 112.618225,189.122366 111.31,189.19 C109.43,189.19 108.21,190.27 108.21,192.59 L108.21,194.83 C108.21,197.15 109.43,198.23 111.31,198.23 C112.83,198.23 114.05,197.51 114.05,196.15 L114.05,195.45 L111.45,195.45 L111.45,192.91 L116.94,192.91 L116.94,200.69 L114.38,200.69 L114.39,198.51 Z" id="Path" fill="#FFFFFF" fill-rule="nonzero"></path>
            <polygon id="Path" fill="#00A06D" fill-rule="nonzero" points="144.67 23.48 98.68 23.48 98.68 7.10542736e-15 144.67 7.10542736e-15 152.61 11.74"></polygon>
            <path d="M114.47,19 L113.47,15.68 L108.81,15.68 L107.81,19 L104.72,19 L109.33,5 L113.09,5 L117.63,19 L114.47,19 Z M111.17,7.79 L111.07,7.79 L109.53,13.09 L112.73,13.09 L111.17,7.79 Z" id="Shape" fill="#FFFFFF" fill-rule="nonzero"></path>
            <polygon id="Path" fill="#F4E70F" fill-rule="nonzero" points="99.38 124.71 99.38 80.78 199.38 80.78 214.35 102.75 199.38 124.71"></polygon>
            <path d="M199,81.49 L213.49,102.79 L199,124.05 L100.09,124.05 L100.09,81.49 L199,81.49 M199.75,80.07 L98.68,80.07 L98.68,125.42 L199.75,125.42 L215.2,102.79 L199.75,80.11 L199.75,80.07 Z" id="Shape" fill="#1D1D1B" fill-rule="nonzero"></path>
            <polygon id="Path" fill="#52B153" fill-rule="nonzero" points="163.06 50.01 98.68 50.01 98.68 26.53 163.06 26.53 171 38.27"></polygon>
            <path d="M106.05,31.56 L112.83,31.56 C113.813037,31.4704071 114.786115,31.8150245 115.493655,32.5033377 C116.201195,33.1916509 116.572483,34.1548687 116.51,35.14 C116.51,37.28 115.33,38.08 113.91,38.14 L113.91,38.26 C114.772174,38.2444063 115.601644,38.5897922 116.197955,39.2126899 C116.794265,39.8355875 117.103164,40.679325 117.05,41.54 C117.115489,42.5508838 116.770315,43.5454273 116.092652,44.2983864 C115.414988,45.0513456 114.462173,45.4990126 113.45,45.54 L106.05,45.54 L106.05,31.56 Z M109.05,37.28 L112.05,37.28 C112.398057,37.3109899 112.741949,37.1861226 112.989036,36.9390356 C113.236123,36.6919487 113.36099,36.3480568 113.33,36 L113.33,35.4 C113.36099,35.0519432 113.236123,34.7080513 112.989036,34.4609644 C112.741949,34.2138774 112.398057,34.0890101 112.05,34.12 L109.05,34.12 L109.05,37.28 Z M109.05,42.96 L112.55,42.96 C112.897585,42.9964809 113.243459,42.8770043 113.494419,42.6337659 C113.745379,42.3905275 113.875604,42.0485548 113.85,41.7 L113.85,41.02 C113.875604,40.6714452 113.745379,40.3294725 113.494419,40.0862341 C113.243459,39.8429957 112.897585,39.7235191 112.55,39.76 L109.05,39.76 L109.05,42.96 Z" id="Shape" fill="#FFFFFF" fill-rule="nonzero"></path>
            <polygon id="Path" fill="#A5CC74" fill-rule="nonzero" points="181.3 76.53 98.68 76.53 98.68 53.06 181.3 53.06 189.25 64.8"></polygon>
            <path d="M105.67,64.69 C105.67,59.97 108.09,57.37 111.85,57.37 C114.122859,57.1928503 116.243483,58.5253496 117.07,60.65 L114.45,62.01 C114.188956,60.8050757 113.079377,59.9771587 111.85,60.07 C110.07,60.07 108.85,61.27 108.85,63.47 L108.85,65.71 C108.85,67.91 110.03,69.11 111.85,69.11 C113.138529,69.1193603 114.275343,68.2687946 114.63,67.03 L117.11,68.47 C116.22003,70.564829 114.123936,71.887839 111.85,71.79 C108.09,71.79 105.67,69.41 105.67,64.69 Z" id="Path" fill="#FFFFFF" fill-rule="nonzero"></path>
            <polygon id="Path" fill="#F0B40F" fill-rule="nonzero" points="233.89 152.43 98.68 152.43 98.68 128.96 233.89 128.96 241.83 140.7"></polygon>
            <polygon id="Path" fill="#FFFFFF" fill-rule="nonzero" points="106.65 147.65 106.65 133.65 116.15 133.65 116.15 136.35 109.69 136.35 109.69 139.21 115.23 139.21 115.23 141.89 109.69 141.89 109.69 144.89 116.15 144.89 116.15 147.59"></polygon>
            <polygon id="Path" fill="#EB8235" fill-rule="nonzero" points="252.15 178.94 98.68 178.94 98.68 155.47 252.15 155.47 260.09 167.2"></polygon>
            <polygon id="Path" fill="#FFFFFF" fill-rule="nonzero" points="106.87 173.9 106.87 159.9 116.13 159.9 116.13 162.6 109.94 162.6 109.94 165.46 115.24 165.46 115.24 168.14 109.94 168.14 109.94 173.86"></polygon>
            <line x1="94.01" y1="155.29" x2="94.01" y2="205.45" id="Path" stroke="#9D9D9C" stroke-width="1.5"></line>
            <line x1="53.07" y1="83.97" x2="53.07" y2="121.53" id="Path" stroke="#1D1D1B" stroke-width="1.42"></line>
            <path d="M98.66,81.49 L98.66,124.01 L3.82,124.01 C3.18174402,124.01 2.56977426,123.755777 2.11939838,123.303524 C1.66902251,122.851272 1.4173406,122.23825 1.41997914,121.6 L1.41997914,83.89 C1.41997914,83.2534804 1.67285642,82.643031 2.12294373,82.1929437 C2.57303103,81.7428564 3.18348042,81.49 3.82,81.49 L98.66,81.49 M100.08,80.07 L3.82,80.07 C1.71027226,80.07 -7.10542736e-15,81.7802723 -7.10542736e-15,83.89 L-7.10542736e-15,121.6 C-7.10542736e-15,123.709728 1.71027226,125.42 3.82,125.42 L100.08,125.42 L100.08,80.07 L100.08,80.07 Z" id="Shape" fill="#1D1D1B" fill-rule="nonzero"></path>
            <path d="M107.28,118.18 C106.887878,118.18 106.57,117.862122 106.57,117.47 L106.57,88.15 C106.57,87.7578778 106.887878,87.44 107.28,87.44 L118.28,87.44 C126.8,87.44 131.88,93.19 131.88,102.81 C131.88,112.43 126.8,118.18 118.28,118.18 L107.28,118.18 Z M118.28,111.09 C121.88,111.09 123.7,109.09 123.7,105.09 L123.7,100.55 C123.7,96.55 121.88,94.55 118.28,94.55 L114.33,94.55 L114.33,111.09 L118.28,111.09 Z" id="Shape" fill="#FFFFFF" fill-rule="nonzero"></path>
            <path d="M118.33,88.15 C126.1,88.15 131.23,93.07 131.23,102.81 C131.23,112.55 126.1,117.47 118.33,117.47 L107.33,117.47 L107.33,88.15 L118.33,88.15 M113.67,111.79 L118.33,111.79 C122.11,111.79 124.46,109.73 124.46,105.07 L124.46,100.53 C124.46,95.87 122.11,93.81 118.33,93.81 L113.67,93.81 L113.67,111.81 M118.33,86.74 L107.33,86.74 C106.548024,86.7454495 105.91545,87.378024 105.91,88.16 L105.91,117.48 C105.91,118.264244 106.545756,118.9 107.33,118.9 L118.33,118.9 C127.33,118.9 132.64,112.9 132.64,102.82 C132.64,92.74 127.29,86.74 118.33,86.74 L118.33,86.74 Z M115.08,95.25 L118.33,95.25 C121.55,95.25 123.05,96.94 123.05,100.55 L123.05,105.09 C123.05,108.71 121.55,110.4 118.33,110.4 L115.08,110.4 L115.08,95.24 L115.08,95.25 Z" id="Shape" fill="#1D1D1B" fill-rule="nonzero"></path>
        </g>
    </g>
</svg>
