<svg viewBox="0 0 279 206" version="1.1" xmlns="http://www.w3.org/2000/svg" xmlns:xlink="http://www.w3.org/1999/xlink">
    <g id="Page-1" stroke="none" stroke-width="1" fill="none" fill-rule="evenodd">
        <g id="e" transform="translate(0.000104, 0.380000)">
            <polygon id="Path" fill="#D7221F" fill-rule="nonzero" points="270.46 205.44 98.67 205.44 98.67 181.97 270.46 181.97 278.51 193.7"></polygon>
            <path d="M114.38,198.51 L114.28,198.51 C114.08,199.91 112.8,200.97 110.7,200.97 C107.5,200.97 104.98,198.49 104.98,193.81 C104.98,189.13 107.52,186.53 111.3,186.53 C113.587873,186.405341 115.72016,187.689469 116.68,189.77 L114.2,191.19 C113.79833,189.943129 112.608225,189.122366 111.3,189.19 C109.42,189.19 108.2,190.27 108.2,192.59 L108.2,194.83 C108.2,197.15 109.42,198.23 111.3,198.23 C112.82,198.23 114.04,197.51 114.04,196.15 L114.04,195.45 L111.44,195.45 L111.44,192.91 L116.94,192.91 L116.94,200.78 L114.38,200.78 L114.38,198.51 Z" id="Path" fill="#FFFFFF" fill-rule="nonzero"></path>
            <polygon id="Path" fill="#00A06D" fill-rule="nonzero" points="144.66 23.47 98.67 23.47 98.67 0 144.66 0 152.61 11.74"></polygon>
            <path d="M114.46,18.99 L113.46,15.67 L108.8,15.67 L107.8,18.99 L104.72,18.99 L109.32,4.99 L113.08,4.99 L117.62,18.99 L114.46,18.99 Z M111.16,7.78 L111.06,7.78 L109.52,13.08 L112.72,13.08 L111.16,7.78 Z" id="Shape" fill="#FFFFFF" fill-rule="nonzero"></path>
            <polygon id="Path" fill="#F0B40F" fill-rule="nonzero" points="99.38 151.37 99.38 107.43 217.68 107.43 232.65 129.4 217.68 151.37"></polygon>
            <path d="M217.3,108.14 L231.79,129.4 L217.3,150.66 L100.08,150.66 L100.08,108.14 L217.3,108.14 M218.05,106.73 L98.67,106.73 L98.67,152.08 L218.05,152.08 L233.5,129.4 L218.05,106.78 L218.05,106.73 Z" id="Shape" fill="#1D1D1B" fill-rule="nonzero"></path>
            <polygon id="Path" fill="#52B153" fill-rule="nonzero" points="163.05 50.15 98.67 50.15 98.67 26.68 163.05 26.68 171 38.42"></polygon>
            <path d="M106.04,31.71 L112.82,31.71 C113.803037,31.6204071 114.776115,31.9650245 115.483655,32.6533377 C116.191195,33.3416509 116.562483,34.3048687 116.5,35.29 C116.5,37.43 115.32,38.23 113.9,38.29 L113.9,38.41 C114.762174,38.3944063 115.591644,38.7397922 116.187955,39.3626899 C116.784265,39.9855875 117.093164,40.829325 117.04,41.69 C117.105489,42.7008838 116.760315,43.6954273 116.082652,44.4483864 C115.404988,45.2013456 114.452173,45.6490126 113.44,45.69 L106.04,45.69 L106.04,31.71 Z M109.04,37.43 L112.04,37.43 C112.388057,37.4609899 112.731949,37.3361226 112.979036,37.0890356 C113.226123,36.8419487 113.35099,36.4980568 113.32,36.15 L113.32,35.55 C113.35099,35.2019432 113.226123,34.8580513 112.979036,34.6109644 C112.731949,34.3638774 112.388057,34.2390101 112.04,34.27 L109.04,34.27 L109.04,37.43 Z M109.04,43.11 L112.54,43.11 C112.887585,43.1464809 113.233459,43.0270043 113.484419,42.7837659 C113.735379,42.5405275 113.865604,42.1985548 113.84,41.85 L113.84,41.17 C113.865604,40.8214452 113.735379,40.4794725 113.484419,40.2362341 C113.233459,39.9929957 112.887585,39.8735191 112.54,39.91 L109.04,39.91 L109.04,43.11 Z" id="Shape" fill="#FFFFFF" fill-rule="nonzero"></path>
            <polygon id="Path" fill="#A5CC74" fill-rule="nonzero" points="181.3 76.84 98.67 76.84 98.67 53.36 181.3 53.36 189.24 65.1"></polygon>
            <path d="M105.66,64.99 C105.66,60.27 108.08,57.67 111.84,57.67 C114.112859,57.4928503 116.233483,58.8253496 117.06,60.95 L114.44,62.31 C114.178956,61.1050757 113.069377,60.2771587 111.84,60.37 C110.06,60.37 108.84,61.57 108.84,63.77 L108.84,66.01 C108.84,68.21 110.02,69.41 111.84,69.41 C113.128529,69.4193603 114.265343,68.5687946 114.62,67.33 L117.1,68.78 C116.219558,70.8866119 114.121305,72.2229521 111.84,72.13 C108.08,72.12 105.66,69.71 105.66,64.99 Z" id="Path" fill="#FFFFFF" fill-rule="nonzero"></path>
            <polygon id="Path" fill="#F4E70F" fill-rule="nonzero" points="199.55 103.52 98.67 103.52 98.67 80.04 199.55 80.04 207.49 91.78"></polygon>
            <path d="M105.74,84.6 L111,84.6 C114.7,84.6 117.14,86.94 117.14,91.6 C117.14,96.26 114.7,98.6 111,98.6 L105.74,98.6 L105.74,84.6 Z M111,95.86 C112.8,95.86 113.92,94.86 113.92,92.66 L113.92,90.5 C113.92,88.28 112.8,87.3 111,87.3 L108.78,87.3 L108.78,95.86 L111,95.86 Z" id="Shape" fill="#FFFFFF" fill-rule="nonzero"></path>
            <polygon id="Path" fill="#EB8235" fill-rule="nonzero" points="252.14 178.76 98.67 178.76 98.67 155.28 252.14 155.28 260.08 167.02"></polygon>
            <polygon id="Path" fill="#FFFFFF" fill-rule="nonzero" points="106.86 173.72 106.86 159.78 116.12 159.78 116.12 162.48 109.94 162.48 109.94 165.34 115.24 165.34 115.24 168.02 109.94 168.02 109.94 173.74"></polygon>
            <line x1="94.01" y1="155.28" x2="94.01" y2="205.44" id="Path" stroke="#9D9D9C" stroke-width="1.5"></line>
            <line x1="53.07" y1="110.62" x2="53.07" y2="148.18" id="Path" stroke="#1D1D1B" stroke-width="1.42"></line>
            <path d="M98.66,108.14 L98.66,150.66 L3.82,150.66 C2.4945166,150.66 1.41997914,149.585483 1.41997914,148.26 L1.41997914,110.55 C1.4173406,109.91175 1.66902251,109.298728 2.11939838,108.846476 C2.56977426,108.394223 3.18174402,108.14 3.82,108.14 L98.66,108.14 M100.08,106.73 L3.82,106.73 C1.71027226,106.73 -7.10542736e-15,108.440272 -7.10542736e-15,110.55 L-7.10542736e-15,148.26 C-7.10542736e-15,150.369728 1.71027226,152.08 3.82,152.08 L100.08,152.08 L100.08,106.78 L100.08,106.73 Z" id="Shape" fill="#1D1D1B" fill-rule="nonzero"></path>
            <path d="M107.17,144.87 C106.777878,144.87 106.459927,144.552122 106.459927,144.16 L106.459927,114.84 C106.457278,114.650875 106.531207,114.468698 106.664953,114.334953 C106.798698,114.201207 106.980875,114.127278 107.17,114.129927 L127.17,114.129927 C127.562122,114.129927 127.88,114.447878 127.88,114.84 L127.88,120.51 C127.88,120.697397 127.804898,120.876977 127.671452,121.008544 C127.538006,121.140111 127.357378,121.212677 127.17,121.21 L114.26,121.21 L114.26,125.78 L125.19,125.78 C125.378304,125.78 125.558895,125.854803 125.692046,125.987954 C125.825197,126.121105 125.9,126.301696 125.9,126.49 L125.9,132.12 C125.9,132.512122 125.582122,132.83 125.19,132.83 L114.26,132.83 L114.26,137.78 L127.12,137.78 C127.512122,137.78 127.83,138.097878 127.83,138.49 L127.83,144.16 C127.83,144.552122 127.512122,144.87 127.12,144.87 L107.17,144.87 Z" id="Path" fill="#FFFFFF" fill-rule="nonzero"></path>
            <path d="M127.12,114.84 L127.12,120.51 L113.55,120.51 L113.55,126.51 L125.19,126.51 L125.19,132.14 L113.55,132.14 L113.55,138.49 L127.12,138.49 L127.12,144.16 L107.12,144.16 L107.12,114.84 L127.12,114.84 M127.12,113.419964 L107.12,113.419964 C106.742575,113.417314 106.37983,113.566058 106.112944,113.832944 C105.846058,114.09983 105.697314,114.462575 105.699964,114.84 L105.699964,144.16 C105.699964,144.535694 105.849916,144.895857 106.116509,145.160573 C106.383102,145.425288 106.744315,145.572664 107.12,145.570036 L127.12,145.570036 C127.900356,145.570036 128.534505,144.940336 128.54,144.16 L128.54,138.49 C128.54,137.705756 127.904244,137.07 127.12,137.07 L114.94,137.07 L114.94,133.56 L125.16,133.56 C125.535694,133.560009 125.895857,133.410084 126.160573,133.143491 C126.425288,132.876898 126.572664,132.515685 126.57,132.14 L126.57,126.51 C126.57,125.731279 125.938721,125.1 125.16,125.1 L114.94,125.1 L114.94,121.92 L127.09,121.92 C127.870356,121.920019 128.504505,121.290336 128.51,120.51 L128.51,114.84 C128.51,114.055756 127.874244,113.419964 127.09,113.419964 L127.12,113.419964 Z" id="Shape" fill="#1D1D1B" fill-rule="nonzero"></path>
        </g>
    </g>
</svg>
