
<svg viewBox="0 0 292 206" version="1.1" xmlns="http://www.w3.org/2000/svg" xmlns:xlink="http://www.w3.org/1999/xlink">
    <g id="Page-1" stroke="none" stroke-width="1" fill="none" fill-rule="evenodd">
        <g id="f" transform="translate(0.000000, 0.380000)">
            <polygon id="Path" fill="#D7221F" fill-rule="nonzero" points="270.450104 205.44 98.6601038 205.44 98.6601038 181.97 270.450104 181.97 278.500104 193.7"></polygon>
            <path d="M114.380104,198.51 L114.280104,198.51 C114.080104,199.91 112.800104,200.97 110.700104,200.97 C107.490104,200.97 104.970104,198.49 104.970104,193.81 C104.970104,189.13 107.520104,186.53 111.300104,186.53 C113.587976,186.405341 115.720264,187.689469 116.680104,189.77 L114.200104,191.19 C113.798434,189.943129 112.608329,189.122366 111.300104,189.19 C109.420104,189.19 108.190104,190.27 108.190104,192.59 L108.190104,194.83 C108.190104,197.15 109.420104,198.23 111.300104,198.23 C112.820104,198.23 114.040104,197.51 114.040104,196.15 L114.040104,195.45 L111.440104,195.45 L111.440104,192.91 L116.940104,192.91 L116.940104,200.78 L114.380104,200.78 L114.380104,198.51 Z" id="Path" fill="#FFFFFF" fill-rule="nonzero"></path>
            <polygon id="Path" fill="#00A06D" fill-rule="nonzero" points="144.660104 23.47 98.6601038 23.47 98.6601038 0 144.660104 0 152.600104 11.73"></polygon>
            <path d="M114.460104,18.99 L113.460104,15.67 L108.790104,15.67 L107.790104,18.99 L104.710104,18.99 L109.320104,4.99 L113.080104,4.99 L117.620104,18.99 L114.460104,18.99 Z M111.150104,7.78 L111.060104,7.78 L109.520104,13.08 L112.720104,13.08 L111.150104,7.78 Z" id="Shape" fill="#FFFFFF" fill-rule="nonzero"></path>
            <polygon id="Path" fill="#EB8235" fill-rule="nonzero" points="99.3801038 178.05 99.3801038 134.11 236.360104 134.11 251.330104 156.08 236.360104 178.05"></polygon>
            <path d="M235.940104,134.78 L250.430104,156.04 L235.940104,177.34 L100.080104,177.34 L100.080104,134.78 L235.940104,134.78 M236.690104,133.37 L98.6701038,133.37 L98.6701038,178.78 L236.730104,178.78 L252.180104,156.1 L236.730104,133.43 L236.690104,133.37 Z" id="Shape" fill="#1D1D1B" fill-rule="nonzero"></path>
            <polygon id="Path" fill="#52B153" fill-rule="nonzero" points="163.050104 50.15 98.6601038 50.15 98.6601038 26.68 163.050104 26.68 170.990104 38.42"></polygon>
            <path d="M106.030104,31.71 L112.820104,31.71 C113.80314,31.6204071 114.776219,31.9650245 115.483759,32.6533377 C116.191299,33.3416509 116.562587,34.3048687 116.500104,35.29 C116.500104,37.43 115.320104,38.23 113.900104,38.29 L113.900104,38.41 C114.762278,38.3944063 115.591748,38.7397922 116.188058,39.3626899 C116.784369,39.9855875 117.093267,40.829325 117.040104,41.69 C117.105593,42.7008838 116.760419,43.6954273 116.082755,44.4483864 C115.405092,45.2013456 114.452277,45.6490126 113.440104,45.69 L106.030104,45.69 L106.030104,31.71 Z M109.030104,37.43 L112.030104,37.43 C112.378161,37.4609899 112.722053,37.3361226 112.969139,37.0890356 C113.216226,36.8419487 113.341094,36.4980568 113.310104,36.15 L113.310104,35.55 C113.341094,35.2019432 113.216226,34.8580513 112.969139,34.6109644 C112.722053,34.3638774 112.378161,34.2390101 112.030104,34.27 L109.030104,34.27 L109.030104,37.43 Z M109.030104,43.11 L112.540104,43.11 C112.887689,43.1464809 113.233563,43.0270043 113.484523,42.7837659 C113.735483,42.5405275 113.865708,42.1985548 113.840104,41.85 L113.840104,41.17 C113.865708,40.8214452 113.735483,40.4794725 113.484523,40.2362341 C113.233563,39.9929957 112.887689,39.8735191 112.540104,39.91 L109.030104,39.91 L109.030104,43.11 Z" id="Shape" fill="#FFFFFF" fill-rule="nonzero"></path>
            <polygon id="Path" fill="#A5CC74" fill-rule="nonzero" points="181.290104 76.83 98.6601038 76.83 98.6601038 53.36 181.290104 53.36 189.230104 65.1"></polygon>
            <path d="M105.650104,64.99 C105.650104,60.27 108.070104,57.67 111.840104,57.67 C114.112963,57.4928503 116.233587,58.8253496 117.060104,60.95 L114.440104,62.31 C114.17906,61.1050757 113.06948,60.2771587 111.840104,60.37 C110.060104,60.37 108.840104,61.57 108.840104,63.77 L108.840104,66.01 C108.840104,68.21 110.030104,69.41 111.840104,69.41 C113.128633,69.4193603 114.265446,68.5687946 114.620104,67.33 L117.100104,68.78 C116.216478,70.8826833 114.118947,72.2145757 111.840104,72.12 C108.070104,72.11 105.650104,69.71 105.650104,64.99 Z" id="Path" fill="#FFFFFF" fill-rule="nonzero"></path>
            <polygon id="Path" fill="#F4E70F" fill-rule="nonzero" points="199.540104 103.51 98.6601038 103.51 98.6601038 80.04 199.540104 80.04 207.490104 91.78"></polygon>
            <path d="M105.730104,84.6 L111.000104,84.6 C114.700104,84.6 117.140104,86.94 117.140104,91.6 C117.140104,96.26 114.700104,98.6 111.000104,98.6 L105.730104,98.6 L105.730104,84.6 Z M111.000104,95.86 C112.800104,95.86 113.920104,94.86 113.920104,92.66 L113.920104,90.5 C113.920104,88.28 112.800104,87.3 111.000104,87.3 L108.770104,87.3 L108.770104,95.86 L111.000104,95.86 Z" id="Shape" fill="#FFFFFF" fill-rule="nonzero"></path>
            <polygon id="Path" fill="#F0B40F" fill-rule="nonzero" points="217.820104 130.2 98.6601038 130.2 98.6601038 106.72 217.820104 106.72 225.760104 118.46"></polygon>
            <polygon id="Path" fill="#FFFFFF" fill-rule="nonzero" points="106.630104 125.42 106.630104 111.42 116.140104 111.42 116.140104 114.12 109.680104 114.12 109.680104 116.99 115.220104 116.99 115.220104 119.66 109.680104 119.66 109.680104 122.66 116.140104 122.66 116.140104 125.36"></polygon>
            <path d="M265.840104,112.160008 C279.57834,112.148956 290.707461,101.004916 290.700104,87.2666774 C290.692739,73.5284392 279.551682,62.3963307 265.813443,62.400008 C252.075203,62.4036872 240.940104,73.5417599 240.940104,87.28 C240.940104,93.882053 243.564125,100.213411 248.234357,104.879892 C252.904588,109.546372 259.238053,112.165307 265.840104,112.160008 L265.840104,112.160008 Z" id="Path" stroke="#1D1D1B" stroke-width="1.42"></path>
            <path d="M258.340104,96.48 C258.187734,96.4806236 258.037237,96.4464197 257.900104,96.38 C257.679724,96.2689067 257.51322,96.073928 257.438003,95.8388724 C257.362785,95.6038168 257.385161,95.3483965 257.500104,95.13 C259.380388,92.2935352 262.557017,90.5881102 265.960104,90.5881102 C269.363191,90.5881102 272.539819,92.2935352 274.420104,95.13 C274.535047,95.3483965 274.557423,95.6038168 274.482205,95.8388724 C274.406987,96.073928 274.240483,96.2689067 274.020104,96.38 C273.559108,96.5906233 273.013435,96.4230547 272.750104,95.99 C271.204272,93.7667476 268.667953,92.4411016 265.960104,92.4411016 C263.252254,92.4411016 260.715936,93.7667476 259.170104,95.99 C259.006263,96.2951436 258.686428,96.4839619 258.340104,96.48" id="Path" fill="#E30613" fill-rule="nonzero"></path>
            <path d="M259.940104,84.42 C260.753376,84.4364886 261.400907,85.1062298 261.38997,85.9195953 C261.379033,86.7329609 260.713727,87.3850486 259.900306,87.3796635 C259.086885,87.3742783 258.430271,86.7134391 258.430104,85.9 C258.44108,85.0754835 259.115533,84.4144297 259.940104,84.42" id="Path" fill="#E30613" fill-rule="nonzero"></path>
            <path d="M272.000104,84.42 C272.813376,84.4364886 273.460907,85.1062298 273.44997,85.9195953 C273.439033,86.7329609 272.773727,87.3850486 271.960306,87.3796635 C271.146885,87.3742783 270.490271,86.7134391 270.490104,85.9 C270.492732,85.5030741 270.653629,85.1236037 270.937106,84.8457587 C271.220583,84.5679137 271.603205,84.4146633 272.000104,84.42" id="Path" fill="#E30613" fill-rule="nonzero"></path>
            <polygon id="Path" fill="#E30613" fill-rule="nonzero" points="253.160104 88.93 253.160104 86.77 248.590104 86.77 248.590104 85.7 245.760104 87.85 248.590104 90 248.590104 88.93"></polygon>
            <polygon id="Path" fill="#E30613" fill-rule="nonzero" points="253.160104 94.61 253.160104 92.46 248.590104 92.46 248.590104 91.39 245.760104 93.54 248.590104 95.69 248.590104 94.61"></polygon>
            <polygon id="Path" fill="#E30613" fill-rule="nonzero" points="278.510104 88.93 278.510104 86.77 283.080104 86.77 283.080104 85.7 285.910104 87.85 283.080104 90 283.080104 88.93"></polygon>
            <polygon id="Path" fill="#E30613" fill-rule="nonzero" points="278.510104 94.61 278.510104 92.46 283.080104 92.46 283.080104 91.39 285.910104 93.54 283.080104 95.69 283.080104 94.61"></polygon>
            <polygon id="Path" fill="#E30613" fill-rule="nonzero" points="267.770104 99.09 269.970104 99.09 269.970104 103.55 271.070104 103.55 268.870104 106.32 266.670104 103.55 267.770104 103.55"></polygon>
            <polygon id="Path" fill="#E30613" fill-rule="nonzero" points="261.950104 99.09 264.150104 99.09 264.150104 103.55 265.250104 103.55 263.050104 106.32 260.850104 103.55 261.950104 103.55"></polygon>
            <polygon id="Path" fill="#E30613" fill-rule="nonzero" points="271.290104 75.61 269.730104 74.09 272.960104 70.93 272.190104 70.17 275.750104 69.73 275.300104 73.21 274.520104 72.45"></polygon>
            <polygon id="Path" fill="#E30613" fill-rule="nonzero" points="275.410104 79.63 273.850104 78.11 277.080104 74.95 276.310104 74.2 279.860104 73.76 279.410104 77.23 278.640104 76.47"></polygon>
            <polygon id="Path" fill="#E30613" fill-rule="nonzero" points="257.530104 78.11 255.970104 79.63 252.740104 76.48 251.970104 77.23 251.520104 73.76 255.070104 74.2 254.300104 74.95"></polygon>
            <polygon id="Path" fill="#E30613" fill-rule="nonzero" points="261.650104 74.09 260.090104 75.61 256.860104 72.45 256.080104 73.21 255.630104 69.73 259.190104 70.17 258.420104 70.93"></polygon>
            <polygon id="Path" fill="#E30613" fill-rule="nonzero" points="258.040104 74.35 256.240104 76.11 257.190104 77.03 258.990104 75.27"></polygon>
            <rect id="Rectangle" fill="#E30613" fill-rule="nonzero" x="264.690104" y="100.55" width="2.55" height="1.31"></rect>
            <rect id="Rectangle" fill="#E30613" fill-rule="nonzero" x="280.450104" y="89.45" width="1.34" height="2.49"></rect>
            <polygon id="Path" fill="#E30613" fill-rule="nonzero" points="274.360104 76.87 275.310104 75.95 273.510104 74.19 272.560104 75.11"></polygon>
            <path d="M276.680104,79.13 L280.450104,82.82 L280.450104,86.25 L281.780104,86.25 L281.780104,82.54 C281.779225,82.3677475 281.711039,82.202664 281.590104,82.08 L277.590104,78.21 L276.680104,79.13 Z" id="Path" fill="#E30613" fill-rule="nonzero"></path>
            <path d="M261.300104,73.01 L265.860104,68.56 L270.250104,72.85 L271.190104,71.92 L266.330104,67.17 C266.06721,66.9185687 265.652998,66.9185687 265.390104,67.17 L260.390104,72.09 L261.300104,73.01 Z" id="Path" fill="#E30613" fill-rule="nonzero"></path>
            <path d="M280.450104,95.14 L280.450104,100.55 L270.510104,100.55 L270.510104,101.86 L281.120104,101.86 C281.294221,101.862679 281.462131,101.795382 281.586201,101.673191 C281.710271,101.551001 281.780104,101.384137 281.780104,101.21 L281.780104,95.14 L280.450104,95.14 Z" id="Path" fill="#E30613" fill-rule="nonzero"></path>
            <path d="M261.410104,100.55 L251.270104,100.55 L251.270104,95.14 L249.940104,95.14 L249.940104,101.21 C249.942736,101.385049 250.014809,101.551881 250.140463,101.673784 C250.266116,101.795687 250.435055,101.862672 250.610104,101.86 L261.420104,101.86 L261.410104,100.55 Z" id="Path" fill="#E30613" fill-rule="nonzero"></path>
            <path d="M251.270104,86.25 L251.270104,82.78 L254.870104,79.26 L253.930104,78.33 L250.130104,82.04 C250.004577,82.1603985 249.93254,82.3260835 249.930104,82.5 L249.930104,86.21 L251.270104,86.25 Z" id="Path" fill="#E30613" fill-rule="nonzero"></path>
            <rect id="Rectangle" fill="#E30613" fill-rule="nonzero" x="249.930104" y="89.45" width="1.34" height="2.49"></rect>
            <path d="M265.800104,112.2 L265.800104,150.41 C265.800104,150.41 265.800104,156.08 260.130104,156.08 L250.500104,156.08" id="Path" stroke="#1D1D1B" stroke-width="1.42"></path>
            <line x1="53.0701038" y1="137.3" x2="53.0701038" y2="174.86" id="Path" stroke="#1D1D1B" stroke-width="1.42"></line>
            <path d="M98.6601038,134.78 L98.6601038,177.3 L3.82010384,177.3 C2.49462044,177.3 1.42008298,176.225483 1.42008298,174.9 L1.42008298,137.23 C1.41744444,136.59175 1.66912635,135.978728 2.11950222,135.526476 C2.5698781,135.074223 3.18184786,134.819994 3.82010384,134.82 L98.6601038,134.82 M100.080104,133.41 L3.82010384,133.41 C1.71037609,133.41 5.1408925e-05,135.120272 5.1408925e-05,137.23 L5.1408925e-05,174.94 C-0.00521868305,175.956588 0.394893537,176.933366 1.1118602,177.654086 C1.82882687,178.374807 2.80350209,178.78 3.82010384,178.78 L100.080104,178.78 L100.080104,133.41 Z" id="Shape" fill="#1D1D1B" fill-rule="nonzero"></path>
            <path d="M107.380104,171.58 C106.987982,171.58 106.670104,171.262122 106.670104,170.87 L106.670104,141.55 C106.670104,141.157878 106.987982,140.84 107.380104,140.84 L126.830104,140.84 C127.222226,140.84 127.540104,141.157878 127.540104,141.55 L127.540104,147.22 C127.540104,147.612122 127.222226,147.93 126.830104,147.93 L114.470104,147.93 L114.470104,152.52 L124.940104,152.52 C125.128408,152.52 125.308999,152.594803 125.44215,152.727954 C125.5753,152.861105 125.650104,153.041696 125.650104,153.23 L125.650104,158.86 C125.650104,159.048304 125.5753,159.228895 125.44215,159.362046 C125.308999,159.495197 125.128408,159.57 124.940104,159.57 L114.470104,159.57 L114.470104,170.87 C114.472781,171.057378 114.400215,171.238006 114.268648,171.371452 C114.137081,171.504898 113.957501,171.58 113.770104,171.58 L107.380104,171.58 Z" id="Path" fill="#FFFFFF" fill-rule="nonzero"></path>
            <path d="M126.830104,141.55 L126.830104,147.22 L113.770104,147.22 L113.770104,153.22 L124.940104,153.22 L124.940104,158.85 L113.770104,158.85 L113.770104,170.85 L107.380104,170.85 L107.380104,141.55 L126.830104,141.55 M126.830104,140.14 L107.380104,140.14 C106.599748,140.139981 105.965599,140.769664 105.960104,141.55 L105.960104,170.87 C105.960104,171.654244 106.595859,172.29 107.380104,172.29 L113.770104,172.29 C114.145798,172.29 114.505961,172.140084 114.770677,171.873491 C115.035392,171.606898 115.182768,171.245685 115.180104,170.87 L115.180104,160.28 L124.940104,160.28 C125.72208,160.27455 126.354654,159.641976 126.360104,158.86 L126.360104,153.23 C126.365442,152.849015 126.218514,152.481653 125.951921,152.209428 C125.685328,151.937202 125.321118,151.782627 124.940104,151.78 L115.220104,151.78 L115.220104,148.61 L126.870104,148.61 C127.654348,148.61 128.290104,147.974244 128.290104,147.19 L128.290104,141.52 C128.284608,140.739664 127.650459,140.11 126.870104,140.11 L126.830104,140.14 Z" id="Shape" fill="#1D1D1B" fill-rule="nonzero"></path>
        </g>
    </g>
</svg>
