
<svg viewBox="0 0 304 206" version="1.1" xmlns="http://www.w3.org/2000/svg" xmlns:xlink="http://www.w3.org/1999/xlink">
    <g id="Page-1" stroke="none" stroke-width="1" fill="none" fill-rule="evenodd">
        <g id="g" transform="translate(0.000104, 0.000000)">
            <polygon id="Path" fill="#00A06D" fill-rule="nonzero" points="144.66 23.47 98.67 23.47 98.67 -3.55271368e-15 144.66 -3.55271368e-15 152.6 11.73"></polygon>
            <path d="M114.46,18.99 L113.46,15.67 L108.8,15.67 L107.8,18.99 L104.71,18.99 L109.32,4.99 L113.08,4.99 L117.62,18.99 L114.46,18.99 Z M111.16,7.79 L111.06,7.79 L109.52,13.09 L112.72,13.09 L111.16,7.79 Z" id="Shape" fill="#FFFFFF" fill-rule="nonzero"></path>
            <polygon id="Path" fill="#D7221F" fill-rule="nonzero" points="99.38 204.84 99.38 160.91 254.39 160.91 269.36 182.88 254.39 204.84"></polygon>
            <path d="M254.02,161.62 L268.5,182.88 L254.02,204.16 L100.08,204.16 L100.08,161.62 L254.02,161.62 M254.76,160.2 L98.67,160.2 L98.67,205.55 L254.76,205.55 L270.22,182.88 L254.76,160.16 L254.76,160.2 Z" id="Shape" fill="#1D1D1B" fill-rule="nonzero"></path>
            <polygon id="Path" fill="#52B153" fill-rule="nonzero" points="163.05 50.17 98.67 50.17 98.67 26.7 163.05 26.7 170.99 38.43"></polygon>
            <path d="M106.04,31.72 L112.82,31.72 C113.804887,31.6300457 114.779762,31.9759578 115.487684,32.6665665 C116.195606,33.3571751 116.565545,34.3231882 116.5,35.31 C116.5,37.45 115.32,38.25 113.9,38.31 L113.9,38.43 C114.762174,38.4144063 115.591644,38.7597922 116.187955,39.3826899 C116.784265,40.0055875 117.093164,40.849325 117.04,41.71 C117.105489,42.7208838 116.760315,43.7154273 116.082652,44.4683864 C115.404988,45.2213456 114.452173,45.6690126 113.44,45.71 L106.04,45.71 L106.04,31.72 Z M109.04,37.45 L112.04,37.45 C112.399698,37.5012043 112.76293,37.383852 113.024676,37.1318726 C113.286422,36.8798933 113.417495,36.5213843 113.38,36.16 L113.38,35.56 C113.41099,35.2119432 113.286123,34.8680513 113.039036,34.6209644 C112.791949,34.3738774 112.448057,34.2490101 112.1,34.28 L109.1,34.28 L109.04,37.45 Z M109.04,43.13 L112.54,43.13 C112.887585,43.1664809 113.233459,43.0470043 113.484419,42.8037659 C113.735379,42.5605275 113.865604,42.2185548 113.84,41.87 L113.84,41.16 C113.865604,40.8114452 113.735379,40.4694725 113.484419,40.2262341 C113.233459,39.9829957 112.887585,39.8635191 112.54,39.9 L109.04,39.9 L109.04,43.13 Z" id="Shape" fill="#FFFFFF" fill-rule="nonzero"></path>
            <polygon id="Path" fill="#A5CC74" fill-rule="nonzero" points="181.29 76.87 98.67 76.87 98.67 53.4 181.29 53.4 189.24 65.13"></polygon>
            <path d="M105.66,65.03 C105.66,60.31 108.08,57.71 111.84,57.71 C114.112859,57.5328503 116.233483,58.8653496 117.06,60.99 L114.44,62.35 C114.178956,61.1450757 113.069377,60.3171587 111.84,60.41 C110.06,60.41 108.84,61.61 108.84,63.81 L108.84,66.05 C108.84,68.25 110.02,69.45 111.84,69.45 C113.128529,69.4593603 114.265343,68.6087946 114.62,67.37 L117.1,68.81 C116.219558,70.9166119 114.121305,72.2529521 111.84,72.16 C108.08,72.16 105.66,69.75 105.66,65.03 Z" id="Path" fill="#FFFFFF" fill-rule="nonzero"></path>
            <polygon id="Path" fill="#F4E70F" fill-rule="nonzero" points="199.54 103.57 98.67 103.57 98.67 80.1 199.54 80.1 207.49 91.83"></polygon>
            <path d="M105.74,84.66 L111,84.66 C114.7,84.66 117.14,87 117.14,91.66 C117.14,96.32 114.7,98.66 111,98.66 L105.74,98.66 L105.74,84.66 Z M111,95.92 C112.8,95.92 113.92,94.92 113.92,92.72 L113.92,90.56 C113.92,88.34 112.8,87.36 111,87.36 L108.78,87.36 L108.78,95.92 L111,95.92 Z" id="Shape" fill="#FFFFFF" fill-rule="nonzero"></path>
            <polygon id="Path" fill="#F0B40F" fill-rule="nonzero" points="217.82 130.27 98.67 130.27 98.67 106.8 217.82 106.8 225.76 118.54"></polygon>
            <polygon id="Path" fill="#FFFFFF" fill-rule="nonzero" points="106.64 125.49 106.64 111.49 116.14 111.49 116.14 114.19 109.68 114.19 109.68 117.05 115.22 117.05 115.22 119.73 109.68 119.73 109.68 122.73 116.14 122.73 116.14 125.43"></polygon>
            <polygon id="Path" fill="#EB8235" fill-rule="nonzero" points="236 156.97 98.67 156.97 98.67 133.5 236 133.5 243.94 145.24"></polygon>
            <polygon id="Path" fill="#FFFFFF" fill-rule="nonzero" points="106.86 151.94 106.86 137.94 116.12 137.94 116.12 140.64 109.94 140.64 109.94 143.5 115.24 143.5 115.24 146.18 109.94 146.18 109.94 151.9"></polygon>
            <path d="M277.69,112.4 C291.430845,112.4 302.57,101.260845 302.57,87.52 C302.57,73.7791554 291.430845,62.64 277.69,62.64 C263.949155,62.64 252.81,73.7791554 252.81,87.52 C252.81,101.260845 263.949155,112.4 277.69,112.4 Z" id="Path" stroke="#1D1D1B" stroke-width="1.42"></path>
            <path d="M270.19,96.72 C270.03763,96.7206236 269.887133,96.6864197 269.75,96.62 C269.52962,96.5089067 269.363117,96.313928 269.287899,96.0788724 C269.212681,95.8438168 269.235057,95.5883965 269.35,95.37 C271.230285,92.5335352 274.406913,90.8281102 277.81,90.8281102 C281.213087,90.8281102 284.389715,92.5335352 286.27,95.37 C286.384943,95.5883965 286.407319,95.8438168 286.332101,96.0788724 C286.256883,96.313928 286.09038,96.5089067 285.87,96.62 C285.409004,96.8306233 284.863331,96.6630547 284.6,96.23 C283.054168,94.0067476 280.517849,92.6811016 277.81,92.6811016 C275.102151,92.6811016 272.565832,94.0067476 271.02,96.23 C270.85616,96.5351436 270.536324,96.7239619 270.19,96.72" id="Path" fill="#E30613" fill-rule="nonzero"></path>
            <path d="M271.8,84.66 C272.613272,84.6764886 273.260803,85.3462298 273.249866,86.1595953 C273.238929,86.9729609 272.573623,87.6250486 271.760202,87.6196635 C270.946781,87.6142783 270.290167,86.9534391 270.29,86.14 C270.300976,85.3154835 270.975429,84.6544297 271.8,84.66" id="Path" fill="#E30613" fill-rule="nonzero"></path>
            <path d="M283.85,84.66 C284.660654,84.6765119 285.307101,85.3422289 285.299801,86.153018 C285.292501,86.9638071 284.634172,87.6177763 283.823352,87.6196932 C283.012532,87.6216016 282.351125,86.9707456 282.34,86.16 C282.342628,85.7630741 282.503525,85.3836037 282.787002,85.1057587 C283.070479,84.8279137 283.453101,84.6746633 283.85,84.68" id="Path" fill="#E30613" fill-rule="nonzero"></path>
            <polygon id="Path" fill="#E30613" fill-rule="nonzero" points="265.01 89.17 265.01 87.01 260.44 87.01 260.44 85.94 257.61 88.09 260.44 90.24 260.44 89.17"></polygon>
            <polygon id="Path" fill="#E30613" fill-rule="nonzero" points="265.01 94.86 265.01 92.7 260.44 92.7 260.44 91.63 257.61 93.78 260.44 95.93 260.44 94.86"></polygon>
            <polygon id="Path" fill="#E30613" fill-rule="nonzero" points="290.36 89.17 290.36 87.01 294.93 87.01 294.93 85.94 297.76 88.09 294.93 90.24 294.93 89.17"></polygon>
            <polygon id="Path" fill="#E30613" fill-rule="nonzero" points="290.36 94.86 290.36 92.7 294.93 92.7 294.93 91.63 297.76 93.78 294.93 95.93 294.93 94.86"></polygon>
            <polygon id="Path" fill="#E30613" fill-rule="nonzero" points="279.62 99.33 281.82 99.33 281.82 103.79 282.92 103.79 280.72 106.56 278.52 103.79 279.62 103.79"></polygon>
            <polygon id="Path" fill="#E30613" fill-rule="nonzero" points="273.8 99.33 276 99.33 276 103.79 277.1 103.79 274.9 106.56 272.7 103.79 273.8 103.79"></polygon>
            <polygon id="Path" fill="#E30613" fill-rule="nonzero" points="283.14 75.85 281.58 74.33 284.81 71.17 284.04 70.41 287.6 69.97 287.15 73.45 286.37 72.69"></polygon>
            <polygon id="Path" fill="#E30613" fill-rule="nonzero" points="287.26 79.87 285.7 78.35 288.93 75.19 288.16 74.44 291.71 74 291.26 77.47 290.49 76.72"></polygon>
            <polygon id="Path" fill="#E30613" fill-rule="nonzero" points="269.38 78.35 267.82 79.87 264.59 76.72 263.82 77.47 263.37 74 266.93 74.44 266.15 75.19"></polygon>
            <polygon id="Path" fill="#E30613" fill-rule="nonzero" points="273.5 74.33 271.94 75.85 268.71 72.69 267.93 73.45 267.49 69.97 271.04 70.41 270.27 71.17"></polygon>
            <polygon id="Path" fill="#E30613" fill-rule="nonzero" points="269.89 74.59 268.09 76.35 269.04 77.27 270.84 75.51"></polygon>
            <rect id="Rectangle" fill="#E30613" fill-rule="nonzero" x="276.54" y="100.79" width="2.55" height="1.31"></rect>
            <rect id="Rectangle" fill="#E30613" fill-rule="nonzero" x="292.3" y="89.69" width="1.34" height="2.49"></rect>
            <polygon id="Path" fill="#E30613" fill-rule="nonzero" points="286.21 77.11 287.16 76.19 285.36 74.43 284.41 75.35"></polygon>
            <path d="M288.53,79.37 L292.3,83.06 L292.3,86.49 L293.63,86.49 L293.63,82.79 C293.629616,82.6146994 293.561548,82.4463194 293.44,82.32 L289.44,78.45 L288.53,79.37 Z" id="Path" fill="#E30613" fill-rule="nonzero"></path>
            <path d="M273.15,73.25 L277.71,68.8 L282.1,73.09 L283.04,72.16 L278.18,67.41 C277.917106,67.1585687 277.502894,67.1585687 277.24,67.41 L272.24,72.33 L273.15,73.25 Z" id="Path" fill="#E30613" fill-rule="nonzero"></path>
            <path d="M292.3,95.38 L292.3,100.79 L282.36,100.79 L282.36,102.1 L292.94,102.1 C293.114117,102.102679 293.282028,102.035382 293.406098,101.913191 C293.530168,101.791001 293.6,101.624137 293.6,101.45 L293.6,95.38 L292.3,95.38 Z" id="Path" fill="#E30613" fill-rule="nonzero"></path>
            <path d="M273.26,100.79 L263.12,100.79 L263.12,95.38 L261.78,95.38 L261.78,101.45 C261.782632,101.625049 261.854705,101.791881 261.980359,101.913784 C262.106013,102.035687 262.274951,102.102672 262.45,102.1 L273.26,102.1 L273.26,100.79 Z" id="Path" fill="#E30613" fill-rule="nonzero"></path>
            <path d="M263.12,86.49 L263.12,83.06 L266.72,79.54 L265.779999,78.61 L261.98,82.32 C261.851991,82.4428114 261.779739,82.6126056 261.779999,82.79 L261.779999,86.49 L263.12,86.49 Z" id="Path" fill="#E30613" fill-rule="nonzero"></path>
            <rect id="Rectangle" fill="#E30613" fill-rule="nonzero" x="261.78" y="89.69" width="1.34" height="2.49"></rect>
            <path d="M277.65,112.44 L277.65,177.21 C277.65,177.21 277.65,182.88 271.98,182.88 L268.59,182.88" id="Path" stroke="#1D1D1B" stroke-width="1.42"></path>
            <line x1="53.07" y1="164.1" x2="53.07" y2="201.65" id="Path" stroke="#1D1D1B" stroke-width="1.42"></line>
            <path d="M98.66,161.62 L98.66,204.160021 L3.82,204.160021 C3.18266496,204.162672 2.57066168,203.910674 2.11999378,203.460006 C1.66932589,203.009338 1.4173277,202.397335 1.41997896,201.76 L1.41997896,164.02 C1.41997896,162.694517 2.4945166,161.62 3.82,161.62 L98.66,161.62 M100.08,160.2 L3.82,160.2 C1.71027226,160.2 -7.10542736e-15,161.910272 -7.10542736e-15,164.02 L-7.10542736e-15,201.73 C-7.10542736e-15,203.839728 1.71027226,205.55 3.82,205.55 L100.08,205.55 L100.08,160.16 L100.08,160.2 Z" id="Shape" fill="#1D1D1B" fill-rule="nonzero"></path>
            <path d="M118.48,198.97 C110.75,198.97 105.76,192.79 105.76,183.22 C105.76,173.35 111.12,167.22 119.76,167.22 C125.28,167.22 129.41,169.71 131.7,174.43 C131.860172,174.762814 131.738424,175.162846 131.42,175.35 L126.21,178.35 C126.102373,178.417847 125.977201,178.452617 125.85,178.45 C125.773629,178.459517 125.696371,178.459517 125.62,178.45 C125.425019,178.380482 125.268719,178.231452 125.19,178.04 C124.42586,175.723681 122.1942,174.215358 119.76,174.37 C115.97,174.37 113.96,176.6 113.96,180.8 L113.96,185.51 C113.96,189.72 115.96,191.94 119.76,191.94 C122.09,191.94 124.76,190.94 124.76,188.28 L124.76,187.52 L120.04,187.52 C119.647878,187.52 119.33,187.202122 119.33,186.81 L119.33,181.47 C119.329981,181.282603 119.405102,181.103023 119.538548,180.971456 C119.671994,180.839889 119.852622,180.767323 120.04,180.77 L131.59,180.77 C131.777378,180.767323 131.958006,180.839889 132.091452,180.971456 C132.224898,181.103023 132.3,181.282603 132.3,181.47 L132.3,197.76 C132.3,197.947397 132.224898,198.126977 132.091452,198.258544 C131.958006,198.390111 131.777378,198.462677 131.59,198.46 L126.21,198.46 C126.022622,198.462677 125.841994,198.390111 125.708548,198.258544 C125.575102,198.126977 125.499981,197.947397 125.5,197.76 L125.5,196.06 C124.09,197.89 121.59,198.97 118.48,198.97 Z" id="Path" fill="#FFFFFF" fill-rule="nonzero"></path>
            <path d="M119.74,167.93 C124.95,167.93 128.86,170.24 131.04,174.74 L125.83,177.74 C124.960204,175.151346 122.46643,173.464261 119.74,173.62 C115.74,173.62 113.23,175.89 113.23,180.76 L113.23,185.47 C113.23,190.34 115.79,192.61 119.74,192.61 C122.94,192.61 125.5,191.1 125.5,188.24 L125.5,186.77 L120.04,186.77 L120.04,181.44 L131.59,181.44 L131.59,197.76 L126.21,197.76 L126.21,193.09 L126,193.09 C125.58,196.03 122.89,198.26 118.48,198.26 C111.76,198.26 106.48,193.05 106.48,183.26 C106.48,173.47 111.81,167.97 119.75,167.97 M119.75,166.55 C110.69,166.55 105.06,172.96 105.06,183.26 C105.06,193.26 110.33,199.72 118.49,199.72 C120.74687,199.800129 122.966421,199.128284 124.8,197.81 C124.810937,198.586423 125.4435,199.210077 126.22,199.21 L131.6,199.21 C132.380356,199.210019 133.014505,198.580336 133.02,197.8 L133.02,181.42 C133.02,180.635756 132.384244,180 131.6,180 L120.04,180 C119.662575,179.997314 119.29983,180.146058 119.032944,180.412944 C118.766058,180.67983 118.617314,181.042575 118.62,181.42 L118.62,186.75 C118.625495,187.530336 119.259644,188.160019 120.04,188.16 L124.04,188.16 L124.04,188.21 C124.04,191.02 120.43,191.16 119.7,191.16 C116.28,191.16 114.61,189.29 114.61,185.44 L114.61,180.73 C114.61,176.88 116.28,175.01 119.7,175.01 C121.839268,174.854726 123.808225,176.179748 124.47,178.22 C124.618422,178.607591 124.928986,178.910847 125.32,179.05 C125.471792,179.099989 125.630217,179.126955 125.79,179.13 C126.038878,179.127375 126.283074,179.062026 126.5,178.94 L131.71,175.94 C132.351961,175.565218 132.599721,174.761085 132.28,174.09 C129.86,169.09 125.51,166.48 119.7,166.48 L119.75,166.55 Z" id="Shape" fill="#1D1D1B" fill-rule="nonzero"></path>
        </g>
    </g>
</svg>
